<?xml version="1.0" encoding="UTF-8" standalone="no"?>
<!-- Created with Inkscape (http://www.inkscape.org/) -->

<svg
   width="210mm"
   height="297mm"
   viewBox="0 0 210 297"
   version="1.1"
   id="svg456"
   xmlns="http://www.w3.org/2000/svg"
   xmlns:svg="http://www.w3.org/2000/svg">
  <defs
     id="defs453" />
  <g
     id="layer1">
    <path
       style="fill:#ffffff;stroke-width:0.264583"
       id="path509"
       d="m 13.931506,70.818932 c 1.566245,-0.905782 3.222749,-1.613865 4.963177,-2.102149 1.430757,-0.349826 2.902768,-0.438192 4.369474,-0.473868 1.244212,-0.06266 2.477311,0.101219 3.705385,0.277114 0.878245,0.151654 1.705309,0.457488 2.477463,0.897313 -6.845364,-4.041884 -0.543303,-0.0875 1.873494,0.996635 0.711872,0.376944 1.442463,0.721794 2.155666,1.099254 0.111704,0.05113 0.441243,0.215265 0.335111,0.153392 -1.020948,-0.595215 -4.086691,-2.374778 -3.080946,-1.754219 1.223571,0.754964 2.493055,1.432904 3.734771,2.15764 1.010306,0.589671 -2.025118,-1.171612 -3.040534,-1.752441 -0.231857,-0.132628 0.455843,0.278569 0.683364,0.418507 1.443886,0.908082 2.905318,1.727147 4.417922,2.55924 0.449675,0.24737 1.384792,0.508866 1.871636,0.674005 1.980052,0.634365 4.013033,1.049242 6.071388,1.322139 1.548427,0.167095 3.111334,0.23532 4.667023,0.156652 1.931593,-0.09102 3.839734,-0.459354 5.709213,-0.937408 2.063547,-0.479973 3.899689,-1.455225 5.565378,-2.738888 1.394384,-1.165449 2.423232,-2.660917 3.147428,-4.314372 0.319617,-0.952447 0.182285,-0.477975 0.415732,-1.422329 0,0 -3.464534,-1.868461 -3.464534,-1.868461 v 0 c -0.207266,0.907683 -0.08346,0.45179 -0.374956,1.366706 -0.680895,1.601366 -1.680396,3.035096 -3.029657,4.151005 -1.641843,1.236837 -3.450704,2.156277 -5.469406,2.611448 -1.865942,0.449427 -3.765343,0.792917 -5.688192,0.854406 -1.540579,0.04268 -3.085253,-0.01699 -4.615815,-0.204203 -2.04756,-0.287782 -4.070733,-0.718381 -6.030156,-1.389695 -0.558839,-0.201297 -0.873024,-0.30525 -1.405871,-0.529222 -0.155437,-0.06534 -0.604605,-0.296709 -0.460724,-0.208804 5.37193,3.282077 3.519863,2.09691 2.372746,1.343456 -0.458703,-0.264247 -0.230743,-0.123867 -0.683281,-0.422108 -1.24346,-0.726927 -2.488253,-1.451726 -3.741473,-2.161699 -1.021358,-0.578622 4.066148,2.348132 3.045865,1.767621 -1.244775,-0.708242 -2.475963,-1.440154 -3.719354,-2.150819 -0.105365,-0.06022 -0.217532,-0.107662 -0.326297,-0.161494 -0.723969,-0.360132 -1.435648,-0.744776 -2.167843,-1.087628 -0.35687,-0.169103 -0.282003,-0.129238 -0.617897,-0.304686 -0.100978,-0.05275 -0.400299,-0.217604 -0.30203,-0.159965 1.027957,0.602941 2.06039,1.198214 3.091342,1.796013 0.105452,0.06115 -0.209889,-0.124031 -0.314833,-0.186047 -1.238983,-0.718907 -2.477966,-1.437812 -3.71695,-2.156717 -0.806047,-0.385831 -1.648164,-0.658161 -2.538655,-0.772969 -1.244226,-0.168188 -2.495953,-0.302181 -3.753594,-0.228349 -1.480666,0.06396 -2.965294,0.183491 -4.402032,0.57131 -1.760521,0.533614 -3.43361,1.278845 -5.047615,2.161368 0,0 3.319067,2.153316 3.319067,2.153316 z" />
    <path
       style="fill:#000000;stroke-width:0.264583"
       id="path511"
       d="m 58.437073,58.315978 c -1.769176,2.206689 -2.627818,4.906008 -3.353856,7.594455 -0.914992,3.755723 -1.046382,7.630813 -1.337185,11.468002 -0.280887,3.9082 -0.87053,7.781144 -1.448216,11.65335 -0.567666,3.737642 -1.265192,7.466473 -2.42076,11.072865 -0.228359,0.71268 -0.494387,1.41274 -0.741582,2.11911 -1.341578,3.24262 -3.207089,6.37191 -6.093431,8.47515 -0.540782,0.39406 -1.140328,0.7004 -1.710489,1.0506 -0.600543,0.27656 -1.187196,0.58552 -1.801627,0.82966 -1.974276,0.78447 -4.434287,1.38564 -6.567022,1.48683 -0.385503,0.0183 -0.771718,-0.0155 -1.157576,-0.0233 -0.751324,-0.11135 -0.982511,-0.0798 -1.639239,-0.3998 -0.179544,-0.0875 -0.679897,-0.41808 -0.502327,-0.32664 1.008329,0.51924 1.952992,1.16767 2.996848,1.61118 0.143782,0.0611 -0.166635,-0.27096 -0.201084,-0.42333 -0.03939,-0.17423 -0.01048,-0.3571 -0.01572,-0.53565 0.07082,-0.20848 0.11139,-0.42982 0.212447,-0.62543 0.95055,-1.83994 3.675065,-2.90535 5.444297,-3.69485 3.872971,-1.62916 7.942723,-2.69128 12.021222,-3.6582 3.45146,-0.78393 6.949144,-1.40833 10.341462,-2.43517 0.735904,-0.22275 1.45946,-0.48443 2.189189,-0.72665 3.884006,-1.44456 7.501146,-3.588337 10.684756,-6.239901 0.642956,-0.535506 1.249346,-1.113451 1.874022,-1.670174 2.393392,-2.286741 4.439581,-4.888961 5.901862,-7.866571 0.974124,-1.983592 1.147429,-2.669209 1.871086,-4.730488 0.75344,-2.553967 1.424244,-5.170416 1.387411,-7.853013 -0.01598,-1.164505 -0.109701,-1.503844 -0.28956,-2.605098 -0.178892,-0.641464 -0.501261,-2.103953 -1.150945,-2.500678 -3.758621,-2.295162 -2.408597,-2.508287 -4.35628,-1.995209 -0.225094,0.123573 -0.464614,0.223898 -0.67528,0.370721 -0.577998,0.402825 -1.23498,1.069427 -1.70574,1.56175 -1.17848,1.232472 -2.149046,2.555198 -3.114894,3.956855 -1.501865,2.339117 -2.600855,4.901432 -3.382701,7.56453 -0.511328,1.741664 -0.681194,2.693429 -1.063606,4.472037 -0.843172,4.163902 -1.261989,8.398169 -1.403091,12.640122 0.07285,2.045227 0.08716,4.169697 0.874538,6.096587 0.114239,0.27957 0.267692,0.54146 0.401539,0.81219 1.426348,2.18088 3.285445,2.85133 5.776759,4.1187 0.381532,0.19409 1.536782,0.34789 1.920682,0.41078 1.585389,0.14485 3.439983,0.0531 4.873241,-0.72577 1.243457,-0.67571 1.664238,-1.28861 2.640688,-2.31303 2.266264,-2.83336 3.276084,-5.89887 3.933454,-9.401209 0.05309,-0.370581 0.110199,-0.740608 0.159256,-1.111745 0.03683,-0.278611 0.06441,-0.558368 0.09838,-0.837345 0.01857,-0.152559 0.02593,-0.3072 0.05922,-0.457234 0.01442,-0.06493 0.144121,-0.156361 0.0826,-0.181639 -3.887816,-1.597375 -3.478961,-2.538532 -3.80474,-0.538036 -0.390416,2.682245 -0.635304,5.380702 -0.794573,8.085558 -0.04927,1.29875 0.06265,2.59977 0.273593,3.88089 0.06382,0.38756 0.244858,1.29505 0.404683,1.69391 0.08563,0.2137 0.219699,0.40464 0.329546,0.60696 1.390983,1.48807 3.367093,2.84597 5.444837,2.57424 1.193215,-0.15605 2.306981,-0.66876 3.409965,-1.11508 2.475437,-1.15155 4.36965,-3.08212 5.704756,-5.44482 0.293166,-0.51881 0.532553,-1.06622 0.79883,-1.59932 0.972282,-2.2452 1.529142,-4.6343 1.926532,-7.039696 -1.18243,-0.526407 -2.276304,-1.334577 -3.547285,-1.579227 -0.289409,-0.05571 -0.05539,0.586844 -0.08476,0.8801 -0.04747,0.474056 -0.09574,0.948036 -0.145775,1.421828 -0.287276,2.720417 -0.571235,5.441145 -0.855821,8.161855 -0.581223,5.69347 -1.200134,11.41637 -2.591718,16.98105 -0.240625,0.96223 -0.537482,1.90951 -0.806222,2.86426 -1.121283,3.61241 -2.575063,7.24674 -5.329526,9.94212 -0.362061,0.35429 -0.77233,0.65571 -1.158494,0.98357 -0.860161,0.54054 -1.754259,1.2411 -2.79023,1.42246 -0.207907,0.0364 -0.427408,0.0392 -0.633158,-0.008 -0.183039,-0.0419 -0.669002,-0.34126 -0.503674,-0.25225 0.98362,0.5296 1.972489,1.0494 2.958732,1.5741 -0.11592,-0.18196 -0.258363,-0.34952 -0.347761,-0.54588 -0.483298,-1.06152 -0.61179,-2.80061 -0.433506,-3.93251 0.06695,-0.42503 0.220273,-0.83186 0.330409,-1.24779 0.193595,-0.41984 0.350599,-0.85857 0.580787,-1.25952 1.456531,-2.53702 3.978716,-4.06259 6.430272,-5.48687 3.437448,-1.80202 6.845474,-3.69773 9.82217,-6.21418 0.55355,-0.46797 1.06937,-0.9788 1.60406,-1.4682 2.18372,-2.14499 3.94962,-4.68806 5.09682,-7.53211 0.21716,-0.53837 0.39091,-1.09325 0.58637,-1.63987 0.80312,-2.26033 1.10858,-4.65333 1.75817,-6.95403 0.45368,-1.606837 0.62829,-1.914725 1.24677,-3.42127 0.65628,-1.254133 1.86437,-3.647676 3.43867,-3.99405 0.17502,-0.03851 0.35823,0.01162 0.53735,0.01741 1.7239,1.101984 -1.28212,-0.840835 -2.35732,-1.150668 -0.31212,-0.08994 0.39861,0.516181 0.55563,0.800526 0.20404,0.369483 0.37107,0.759378 0.5232,1.153089 0.45122,1.167791 0.56387,1.781685 0.87157,3.006569 0.10246,0.541303 0.2138,1.081 0.30737,1.623909 0.11643,0.675465 0.21992,1.673495 0.41844,2.372525 0.42554,1.49834 3.11538,1.8571 3.98964,2.03116 0.297,0.0591 0.31818,-0.51536 0.47727,-0.77304 1.25319,-2.17617 2.71602,-4.307994 4.7001,-5.888001 0.37548,-0.299016 0.78857,-0.547497 1.18286,-0.821248 1.00436,-0.570127 2.03992,-1.033571 3.20362,-0.639652 0.34092,0.115404 1.28611,0.646295 0.95873,0.496737 -2.7576,-1.259758 -3.03498,-1.921399 -1.54537,-0.07753 0.27168,0.461552 0.57028,0.908285 0.81505,1.384654 0.59876,1.165273 0.90865,2.111158 1.3748,3.33709 0.62659,1.64787 1.27326,3.26917 2.0091,4.87112 0.26748,0.3761 0.48498,0.79332 0.80245,1.12831 1.14808,1.21143 5.3877,2.7491 5.52912,2.78821 0.51573,0.14262 1.05617,-0.19607 1.5617,-0.37146 1.36465,-0.47345 2.55681,-1.20592 3.81513,-1.8985 2.58568,-1.68085 1.3359,-0.83155 3.7534,-2.54191 0,0 -3.20943,-2.04151 -3.20943,-2.04151 v 0 c -2.38588,1.70282 -1.14741,0.8645 -3.72071,2.50714 -1.26147,0.66519 -2.424,1.36911 -3.80385,1.76913 -0.48824,0.14154 -1.66721,-0.23963 -1.50566,0.24237 0.28949,0.86373 1.49011,1.05864 2.15162,1.68492 0.60541,0.57317 -3.083,-1.92959 -1.86328,-1.66838 -0.76617,-1.58972 -1.42753,-3.19887 -2.04602,-4.85231 -0.4731,-1.26474 -0.74624,-2.16942 -1.32926,-3.384039 -0.23414,-0.487783 -0.51818,-0.949997 -0.77727,-1.424996 -1.72544,-2.40666 -0.72126,-1.307034 -5.06758,-3.876162 -0.62284,-0.368162 -1.37255,-0.535667 -2.09235,-0.447108 -0.93611,0.115173 -1.45491,0.499234 -2.27699,0.937678 -0.39976,0.288964 -0.81812,0.553802 -1.19928,0.866894 -1.9847,1.630283 -3.46657,3.775064 -4.8083,5.938153 -1.14611,1.65036 -0.71264,0.57871 2.73511,2.71463 0.1177,0.0729 -0.23301,-0.17209 -0.28833,-0.29902 -0.13011,-0.29849 -0.18848,-0.62435 -0.25325,-0.94346 -0.20716,-1.0206 -0.27115,-2.06723 -0.52539,-3.079754 -0.92904,-3.94889 -1.44307,-6.569477 -6.27894,-7.770302 -0.20343,0.03716 -0.41631,0.03982 -0.61029,0.111477 -1.7182,0.634659 -2.72972,2.796879 -3.50511,4.284922 -0.59366,1.471962 -0.8161,1.917848 -1.26301,3.476649 -0.65504,2.284738 -0.97115,4.660538 -1.75259,6.911948 -0.19123,0.53725 -0.36154,1.0824 -0.57371,1.61173 -1.12086,2.7963 -2.84235,5.30588 -4.98184,7.41987 -0.52546,0.48361 -1.031692,0.989 -1.576395,1.45084 -2.968741,2.51709 -6.384311,4.36729 -9.82137,6.15251 -2.543553,1.48616 -5.068009,3.03554 -6.593035,5.66107 -0.242819,0.41805 -0.412565,0.87446 -0.618848,1.31168 -0.127521,0.43884 -0.300789,0.86691 -0.382561,1.31653 -0.07129,0.39197 -0.06893,0.79455 -0.07384,1.19292 -0.01503,1.2187 0.138261,2.46835 0.659424,3.57928 1.270569,0.7807 2.510565,1.6135 3.811706,2.34212 0.175557,0.0983 0.389755,0.11835 0.590902,0.12326 1.316897,0.0322 2.473137,-1.01251 3.498416,-1.67031 0.388054,-0.34591 0.80015,-0.66661 1.164164,-1.03774 2.736517,-2.79004 4.208624,-6.46566 5.321604,-10.14488 0.267396,-0.96361 0.56382,-1.91964 0.802191,-2.89083 1.370105,-5.58221 1.972447,-11.32 2.600472,-17.02051 0.31255,-2.69712 0.64228,-5.38968 1.00426,-8.080559 0.0626,-0.465534 0.12209,-0.931508 0.18841,-1.396529 0.0406,-0.284737 0.3477,-0.661961 0.13238,-0.852641 -1.01513,-0.898935 -2.318576,-1.406599 -3.477861,-2.109899 -0.163472,2.39888 -0.88293,4.754494 -1.75673,6.978178 -0.260424,0.52097 -0.493673,1.05643 -0.781277,1.5629 -1.305163,2.29839 -3.176138,4.14822 -5.608072,5.21993 -0.768114,0.29529 -1.547487,0.6281 -2.353561,0.81572 -0.328647,0.0765 -0.663874,0.13526 -1.000924,0.15134 -0.287562,0.0137 -1.074097,-0.25653 -0.861404,-0.0625 0.637956,0.58195 3.998463,2.58286 2.189144,1.38509 -0.127317,-0.17231 -0.285805,-0.32548 -0.381952,-0.51695 -0.170958,-0.34043 -0.400376,-1.32901 -0.462463,-1.65374 -0.240424,-1.25751 -0.365517,-2.54142 -0.330679,-3.8219 0.15108,-2.68323 0.37387,-5.36323 0.82622,-8.014956 0.426005,-2.109213 0.320519,-0.393051 -3.373512,-2.803525 -0.05385,-0.03514 0.09898,-0.215828 0.116314,-0.153902 0.04235,0.151299 -0.01593,0.313859 -0.02768,0.470532 -0.02101,0.279641 -0.04133,0.559419 -0.07061,0.838314 -0.03876,0.369096 -0.08898,0.736899 -0.133474,1.105347 -0.585602,3.452653 -1.530964,6.45134 -3.780978,9.22451 -0.996378,1.00589 -1.321755,1.5115 -2.581037,2.13942 -1.468038,0.73201 -3.196248,0.73264 -4.779152,0.54392 -0.333307,-0.0691 -0.671137,-0.11905 -0.999916,-0.20717 -1.348518,-0.36141 -2.710381,-1.2981 1.715698,1.28556 0.227701,0.13291 -0.447453,-0.28178 -0.650573,-0.44988 -0.500589,-0.41427 -0.672457,-0.6899 -1.069991,-1.19711 -0.144402,-0.25407 -0.311126,-0.4967 -0.433202,-0.76223 -0.860663,-1.87203 -0.881764,-3.98657 -1.000054,-6.0008 0.08451,-4.228462 0.487632,-8.451681 1.325457,-12.601088 0.383315,-1.783218 0.542263,-2.686458 1.055552,-4.431049 0.77292,-2.627029 1.858299,-5.153496 3.354994,-7.452545 0.964745,-1.374939 1.93004,-2.674609 3.119188,-3.86666 0.446188,-0.447278 1.110652,-1.090375 1.681708,-1.429515 0.191606,-0.113795 0.412086,-0.169804 0.61813,-0.254706 1.600906,0.07457 0.693531,0.104545 -2.533221,-1.78539 -0.134332,-0.07868 0.267208,0.16578 0.375719,0.277405 0.526796,0.54193 0.724114,1.321594 0.939178,2.015773 0.209383,1.066885 0.318423,1.423273 0.36286,2.556018 0.104069,2.652678 -0.549465,5.249926 -1.266489,7.781597 -0.703191,2.039527 -0.867995,2.722586 -1.833705,4.67945 -1.447589,2.933316 -3.487531,5.494453 -5.840886,7.752725 -0.61907,0.55014 -1.219184,1.122378 -1.857209,1.650418 -3.166385,2.620563 -6.766165,4.721675 -10.631863,6.119687 -0.728165,0.2352 -1.450649,0.48879 -2.1845,0.70562 -3.396409,1.0035 -6.892174,1.62028 -10.336922,2.42487 -4.099687,0.98822 -8.196688,2.05333 -12.091804,3.69602 -1.957668,0.87614 -4.602128,1.90463 -5.68792,3.91108 -0.124286,0.22967 -0.187746,0.48737 -0.28162,0.73105 -0.01352,0.17204 -0.149651,1.05445 0.08257,1.23349 0.846672,0.6528 3.277026,2.5553 4.992492,2.84255 0.312968,0.0524 0.631873,0.0593 0.947809,0.089 0.388588,-0.009 0.778322,0.005 1.165765,-0.0256 2.931713,-0.23454 5.80654,-1.16839 8.416432,-2.48927 0.580213,-0.36709 1.190112,-0.69101 1.740644,-1.10128 2.915356,-2.17258 4.810141,-5.35109 6.178121,-8.65578 0.249333,-0.71271 0.517316,-1.41918 0.747996,-2.13815 1.16133,-3.619573 1.87371,-7.360747 2.459238,-11.110353 0.590516,-3.876937 1.20404,-7.753525 1.478841,-11.669361 0.286086,-3.813799 0.402686,-7.666828 1.308923,-11.400379 0.719283,-2.621934 1.551437,-5.283708 3.37012,-7.375303 0,0 -3.385373,-2.05015 -3.385373,-2.05015 z" />
    <path
       style="fill:#000000;stroke-width:0.264583"
       id="path562"
       d="m 21.733337,65.369958 c 1.930623,-0.968412 3.893414,-1.867414 5.896661,-2.674599 0.417063,-0.161488 0.833728,-0.324001 1.251185,-0.484463 0.884016,-0.339799 1.782059,-0.693938 2.687217,-0.974727 1.540343,-0.477833 3.119292,-0.782939 4.699156,-1.093232 4.006297,-0.684461 8.081217,-0.813321 12.137178,-0.828471 2.644691,0.03569 5.297853,0.08355 7.934989,0.308467 1.389513,0.118507 2.289003,0.253209 3.669792,0.435287 2.412799,0.347938 4.83013,0.703199 7.210767,1.236329 1.285279,0.28783 2.109493,0.541771 3.374786,0.901811 3.56234,1.083556 7.129381,2.157029 10.736205,3.083412 4.718933,1.202801 9.575117,1.58868 14.420394,1.851779 5.222003,0.295704 10.448463,0.172072 15.658083,-0.249584 4.18723,-0.489879 8.35488,-1.31386 12.34853,-2.677533 0.36837,-0.139324 0.73675,-0.278649 1.10513,-0.417973 0,0 -3.23225,-2.171592 -3.23225,-2.171592 v 0 c -0.35854,0.14041 -0.71708,0.280819 -1.07562,0.421228 -3.94327,1.370811 -8.06086,2.205394 -12.20803,2.657911 -5.20072,0.405516 -10.416859,0.510225 -15.628097,0.208418 -4.848318,-0.280567 -9.703795,-0.701636 -14.417186,-1.943291 -3.608384,-0.948626 -7.179884,-2.029584 -10.752193,-3.105081 -3.481739,-0.964398 -7.025158,-1.645383 -10.612119,-2.088351 -3.852072,-0.48742 -7.726458,-0.714444 -11.61092,-0.684646 -4.081669,0.03158 -8.183644,0.156869 -12.213105,0.863097 -1.289127,0.255088 -2.009349,0.377677 -3.271811,0.703845 -1.862799,0.481269 -3.650779,1.186312 -5.439065,1.887212 -2.021526,0.820224 -4.001116,1.733219 -5.976049,2.659274 0,0 3.306372,2.175473 3.306372,2.175473 z" />
    <path
       style="fill:#000000;stroke-width:0.264583"
       id="path564"
       d="m 38.529818,86.241812 c 2.493782,-1.110572 5.105336,-1.858269 7.765745,-2.439802 2.957955,-0.55867 5.96297,-0.806836 8.969288,-0.682625 2.560376,0.163401 5.027197,0.922062 7.524372,1.454285 2.602912,0.437848 5.270619,0.666435 7.908546,0.440655 0.478269,-0.04094 0.952188,-0.122515 1.428282,-0.183774 1.366401,-0.197898 2.671566,-0.610253 3.965842,-1.072689 0,0 -3.253745,-2.196992 -3.253745,-2.196992 v 0 c -1.260957,0.453488 -2.539725,0.843238 -3.871505,1.033336 -0.466104,0.05572 -0.930283,0.130963 -1.398307,0.167147 -2.630808,0.203396 -5.284211,-0.05562 -7.870714,-0.536366 -2.503027,-0.552444 -4.989383,-1.283004 -7.564943,-1.397127 -3.019666,-0.07524 -6.034728,0.196776 -9.000257,0.779862 -2.692365,0.605941 -5.326687,1.388693 -7.886501,2.427714 0,0 3.283897,2.206376 3.283897,2.206376 z" />
  </g>
</svg>
