<svg id="svg" version="1.1" xmlns="http://www.w3.org/2000/svg" xmlns:xlink="http://www.w3.org/1999/xlink" width="400" height="400" viewBox="0, 0, 400,400"><g id="svgg"><path id="path0" d="M196.877 70.248 C 197.249 70.359,197.625 70.933,197.714 71.525 C 197.859 72.497,197.871 72.486,197.837 71.403 C 197.810 70.515,197.594 70.186,197.000 70.126 C 196.421 70.068,196.387 70.102,196.877 70.248 M197.200 75.801 C 197.200 85.242,190.077 92.040,179.000 93.173 C 170.506 94.042,49.609 93.803,47.181 92.912 C 43.740 91.651,41.915 90.614,38.177 87.794 C 36.276 86.360,33.884 84.707,32.861 84.120 C 26.437 80.433,26.421 79.912,32.720 79.562 L 37.000 79.324 31.800 79.362 L 26.600 79.400 26.474 81.168 C 26.277 83.923,26.593 84.611,28.291 85.120 C 30.971 85.923,33.415 87.765,34.342 89.681 L 35.200 91.453 35.200 178.331 L 35.200 265.209 34.348 267.021 C 33.437 268.959,31.308 270.690,28.675 271.633 C 26.562 272.389,26.315 272.807,26.684 274.997 L 27.000 276.874 54.700 276.937 L 82.400 277.000 82.400 274.597 L 82.400 272.195 80.700 271.666 C 78.041 270.839,76.485 269.687,75.296 267.665 L 74.200 265.800 73.975 228.600 C 73.851 208.140,73.816 191.265,73.898 191.100 C 73.980 190.935,90.738 190.800,111.139 190.800 L 148.230 190.800 150.012 191.700 C 152.330 192.871,153.774 195.115,155.032 199.500 C 155.122 199.815,155.921 200.000,157.187 200.000 L 159.200 200.000 159.200 182.263 C 159.200 172.508,159.278 162.023,159.374 158.963 C 159.557 153.089,159.409 153.071,158.982 158.916 L 158.725 162.433 155.460 165.728 C 148.359 172.894,150.198 172.600,112.400 172.600 C 76.091 172.600,76.301 172.621,72.234 168.554 C 67.850 164.170,67.522 158.103,71.492 154.827 L 73.000 153.583 73.260 154.491 C 73.403 154.991,73.538 156.129,73.560 157.020 C 73.605 158.836,74.166 159.619,75.380 159.560 C 76.079 159.526,76.055 159.480,75.218 159.246 C 74.042 158.918,74.184 161.794,73.967 134.000 L 73.800 112.600 130.200 112.600 C 177.487 112.600,186.813 112.690,187.920 113.157 C 189.568 113.852,191.276 116.295,192.228 119.318 L 192.958 121.636 194.979 121.518 L 197.000 121.400 197.231 97.800 C 197.358 84.820,197.403 74.125,197.331 74.033 C 197.259 73.942,197.200 74.737,197.200 75.801 M271.766 84.545 C 271.651 84.844,271.622 86.149,271.703 87.445 L 271.849 89.800 271.924 87.133 C 271.973 85.436,272.182 84.393,272.500 84.265 C 272.892 84.107,272.889 84.056,272.487 84.032 C 272.206 84.014,271.881 84.245,271.766 84.545 M261.837 84.741 C 261.702 84.959,261.937 85.037,262.380 84.921 C 263.087 84.736,263.176 84.969,263.310 87.360 L 263.459 90.003 263.430 87.306 C 263.401 84.698,262.630 83.457,261.837 84.741 M259.800 86.235 L 258.600 87.266 259.900 86.406 C 260.615 85.933,261.200 85.468,261.200 85.373 C 261.200 85.073,261.031 85.178,259.800 86.235 M272.216 98.000 C 272.316 101.850,272.398 111.841,272.399 120.202 L 272.400 135.403 276.100 137.640 C 278.135 138.871,286.460 144.067,294.600 149.188 C 302.740 154.308,314.854 161.916,321.520 166.095 C 329.896 171.345,333.604 173.883,333.520 174.309 C 333.454 174.648,331.454 175.996,329.075 177.305 C 325.304 179.380,323.049 181.133,326.343 179.429 C 329.710 177.688,333.595 180.736,333.599 185.120 C 333.601 188.916,331.880 190.847,324.200 195.665 C 323.320 196.217,321.250 197.538,319.600 198.600 C 316.611 200.524,314.750 201.701,311.900 203.469 C 309.541 204.933,307.640 206.127,304.310 208.240 C 302.610 209.318,299.931 211.010,298.356 212.000 C 296.781 212.990,294.869 214.212,294.106 214.715 C 293.344 215.219,291.433 216.299,289.860 217.115 C 282.025 221.183,267.664 216.708,273.900 212.142 C 276.199 210.459,276.366 210.194,274.477 211.229 C 273.530 211.748,272.615 212.359,272.446 212.586 C 272.276 212.814,272.241 224.394,272.368 238.321 L 272.600 263.642 280.400 258.273 C 284.690 255.321,292.340 250.101,297.400 246.675 C 311.358 237.223,327.339 226.385,340.000 217.785 C 346.270 213.525,356.260 206.766,362.200 202.764 C 368.140 198.762,373.132 195.287,373.294 195.043 C 373.456 194.800,373.591 185.027,373.594 173.327 L 373.600 152.054 372.300 151.191 L 371.000 150.327 372.100 151.344 C 374.488 153.553,373.534 155.002,368.284 157.142 C 364.837 158.548,358.818 157.819,355.405 155.583 C 353.202 154.140,336.881 143.254,311.967 126.608 C 277.293 103.441,273.349 100.139,272.389 93.466 C 272.135 91.698,272.086 92.983,272.216 98.000 M262.800 92.714 C 262.800 96.569,262.203 97.642,257.480 102.268 C 251.472 108.154,251.047 108.469,231.200 121.803 C 225.590 125.572,218.930 130.071,216.400 131.800 C 209.052 136.822,184.550 153.274,180.000 156.241 C 174.634 159.740,169.456 159.508,165.200 155.577 L 162.600 153.175 164.600 151.346 L 166.600 149.517 164.800 150.773 C 160.999 153.423,161.300 152.361,162.324 159.509 C 163.136 165.177,163.224 167.313,163.213 181.094 L 163.200 196.388 165.384 198.103 C 166.585 199.045,177.160 206.259,188.884 214.132 C 218.557 234.059,251.019 255.924,257.216 260.155 C 260.080 262.111,262.489 263.641,262.570 263.555 C 262.651 263.470,262.780 251.991,262.858 238.046 L 263.000 212.692 261.000 211.323 C 256.888 208.507,256.531 208.673,260.500 211.555 C 263.587 213.797,263.485 215.422,260.148 217.139 C 254.536 220.026,247.672 219.185,241.228 214.821 C 240.663 214.438,239.480 213.678,238.600 213.132 C 237.720 212.586,236.235 211.657,235.300 211.069 C 234.365 210.481,232.880 209.550,232.000 209.000 C 228.565 206.853,227.290 206.050,224.315 204.160 C 222.618 203.082,219.778 201.300,218.003 200.200 C 203.485 191.203,201.600 189.461,201.600 185.051 C 201.600 180.778,205.654 178.052,209.353 179.837 C 211.560 180.901,212.434 180.852,210.360 179.779 C 209.637 179.405,208.495 178.794,207.823 178.420 C 207.150 178.046,205.475 177.143,204.100 176.414 C 202.725 175.685,201.600 174.858,201.600 174.576 C 201.600 174.294,206.865 170.724,213.300 166.643 C 219.735 162.561,228.960 156.709,233.800 153.637 C 238.640 150.565,247.120 145.229,252.645 141.779 L 262.689 135.505 262.893 113.653 C 263.004 101.634,263.029 91.725,262.948 91.633 C 262.867 91.542,262.800 92.028,262.800 92.714 M198.922 127.829 L 197.800 128.858 199.100 127.954 C 199.815 127.457,200.400 126.993,200.400 126.925 C 200.400 126.609,199.958 126.880,198.922 127.829 M196.100 129.646 C 194.737 130.519,194.295 131.106,195.500 130.443 C 196.418 129.939,197.856 128.827,197.600 128.819 C 197.490 128.816,196.815 129.188,196.100 129.646 M367.200 147.762 C 367.200 147.872,368.010 148.519,369.000 149.200 C 369.990 149.881,370.800 150.348,370.800 150.238 C 370.800 150.128,369.990 149.481,369.000 148.800 C 368.010 148.119,367.200 147.652,367.200 147.762 M156.100 149.476 C 156.485 149.576,157.115 149.576,157.500 149.476 C 157.885 149.375,157.570 149.293,156.800 149.293 C 156.030 149.293,155.715 149.375,156.100 149.476 M154.160 150.619 C 154.019 151.179,154.016 151.749,154.152 151.885 C 154.288 152.022,154.400 151.779,154.400 151.347 C 154.400 150.914,154.616 150.344,154.880 150.080 C 155.245 149.715,155.247 149.600,154.888 149.600 C 154.628 149.600,154.300 150.058,154.160 150.619 M158.878 150.064 C 159.250 150.359,159.633 151.230,159.727 152.000 C 159.858 153.058,159.888 152.961,159.850 151.603 C 159.809 150.141,159.651 149.781,159.000 149.668 C 158.264 149.539,158.255 149.571,158.878 150.064 M151.178 157.100 L 149.800 158.600 151.300 157.222 C 152.125 156.463,152.800 155.788,152.800 155.722 C 152.800 155.416,152.462 155.704,151.178 157.100 M80.707 159.090 C 81.426 159.179,82.506 159.177,83.107 159.086 C 83.708 158.995,83.120 158.922,81.800 158.924 C 80.480 158.926,79.988 159.001,80.707 159.090 M144.707 159.090 C 145.426 159.179,146.506 159.177,147.107 159.086 C 147.708 158.995,147.120 158.922,145.800 158.924 C 144.480 158.926,143.988 159.001,144.707 159.090 M278.495 208.611 C 277.343 209.386,276.400 210.108,276.400 210.215 C 276.400 210.321,277.390 209.751,278.600 208.947 C 280.522 207.671,281.087 207.200,280.695 207.200 C 280.637 207.200,279.647 207.835,278.495 208.611 " stroke="none" fill="#368d66" fill-rule="evenodd"></path><path id="path1" d="M192.900 71.807 C 192.625 72.115,192.400 72.482,192.400 72.623 C 192.400 73.079,191.080 75.768,190.297 76.906 C 188.441 79.607,195.128 79.379,111.320 79.600 C 57.247 79.743,35.515 79.925,35.202 80.238 C 33.676 81.764,46.074 88.159,51.800 88.800 C 58.648 89.568,176.704 89.119,179.800 88.314 C 188.682 86.005,194.400 80.470,194.400 74.182 C 194.400 72.160,193.649 70.971,192.900 71.807 M274.400 88.213 C 274.400 89.806,275.890 93.007,277.745 95.400 C 279.085 97.128,282.829 100.782,283.271 100.793 C 283.421 100.797,283.794 101.051,284.100 101.357 C 284.406 101.663,285.544 102.390,286.628 102.972 C 287.713 103.554,289.230 104.412,290.000 104.879 C 291.907 106.036,340.770 138.674,348.000 143.620 C 356.818 149.651,358.426 150.403,362.479 150.387 C 366.001 150.374,367.417 149.830,366.969 148.663 C 366.652 147.837,359.136 142.684,322.800 118.377 C 306.410 107.413,290.480 96.710,287.400 94.593 C 275.814 86.629,274.400 85.935,274.400 88.213 M250.400 93.327 C 245.450 96.678,233.840 104.523,224.600 110.761 C 210.298 120.415,200.795 127.075,200.000 128.000 C 199.760 128.280,192.383 132.800,192.167 132.800 C 191.761 132.800,172.461 145.999,170.100 147.891 C 169.165 148.641,168.401 149.467,168.403 149.727 C 168.415 151.536,175.160 151.725,178.200 150.001 C 179.300 149.377,181.042 148.405,182.072 147.841 C 183.101 147.277,184.050 146.642,184.181 146.431 C 184.312 146.219,187.609 143.925,191.509 141.332 C 195.409 138.739,199.593 135.868,200.807 134.951 C 202.021 134.034,203.731 132.900,204.607 132.432 C 205.483 131.963,208.000 130.337,210.200 128.818 C 213.933 126.241,244.835 105.599,246.600 104.504 C 247.040 104.231,248.261 103.550,249.313 102.990 C 254.742 100.104,261.221 91.752,260.724 88.279 C 260.497 86.687,259.463 87.192,250.400 93.327 M155.156 151.301 C 154.830 151.627,154.321 152.628,154.025 153.525 C 153.309 155.693,151.452 157.884,149.713 158.610 C 148.509 159.114,143.320 159.203,114.251 159.217 C 75.773 159.237,75.525 159.254,76.149 161.740 C 76.724 164.028,79.103 165.898,83.480 167.498 C 86.413 168.570,140.776 168.575,143.706 167.503 C 149.097 165.530,153.687 162.113,155.403 158.793 C 156.798 156.097,156.592 149.865,155.156 151.301 M319.356 183.647 C 318.060 184.333,316.820 185.034,316.600 185.205 C 316.380 185.375,315.570 185.871,314.800 186.307 C 314.030 186.742,311.330 188.411,308.800 190.016 C 304.221 192.920,300.148 195.492,293.100 199.930 C 278.345 209.221,277.127 210.261,279.669 211.382 C 283.629 213.130,288.234 211.750,296.481 206.344 C 298.616 204.945,301.818 202.900,303.596 201.800 C 305.375 200.700,308.218 198.918,309.915 197.840 C 311.612 196.762,313.630 195.484,314.400 195.001 C 318.151 192.645,320.286 191.205,321.161 190.440 C 321.690 189.978,322.251 189.600,322.408 189.600 C 324.222 189.600,325.191 184.924,323.678 183.475 C 322.276 182.131,322.216 182.134,319.356 183.647 M212.104 183.064 C 211.830 183.174,211.315 183.880,210.958 184.632 C 209.527 187.647,211.551 189.443,227.595 199.400 C 232.117 202.206,236.918 205.223,240.200 207.321 C 247.099 211.730,251.972 213.053,255.370 211.441 C 257.790 210.293,257.122 209.356,251.311 205.746 C 249.942 204.896,244.825 201.680,239.940 198.600 C 231.413 193.224,229.833 192.234,222.529 187.701 C 215.248 183.183,213.611 182.455,212.104 183.064 " stroke="none" fill="#69ab8e" fill-rule="evenodd"></path><path id="path2" d="M188.000 66.800 C 188.000 67.020,187.542 67.200,186.982 67.200 C 185.859 67.200,184.000 68.810,184.000 69.782 C 184.000 70.122,183.820 70.400,183.600 70.400 C 183.380 70.400,183.200 70.760,183.200 71.200 C 183.200 71.640,183.020 72.000,182.800 72.000 C 182.580 72.000,182.400 72.283,182.400 72.629 C 182.400 73.573,181.386 74.400,180.229 74.400 C 179.663 74.400,179.200 74.580,179.200 74.800 C 179.200 75.065,152.933 75.200,101.200 75.200 C 49.467 75.200,23.200 75.335,23.200 75.600 C 23.200 75.820,22.660 76.000,22.000 76.000 C 21.340 76.000,20.800 76.180,20.800 76.400 C 20.800 76.620,20.440 76.800,20.000 76.800 C 19.467 76.800,19.200 77.067,19.200 77.600 C 19.200 78.040,19.020 78.400,18.800 78.400 C 18.580 78.400,18.400 78.760,18.400 79.200 C 18.400 79.640,18.220 80.000,18.000 80.000 C 17.749 80.000,17.600 82.533,17.600 86.800 C 17.600 91.067,17.749 93.600,18.000 93.600 C 18.220 93.600,18.400 94.055,18.400 94.611 C 18.400 95.740,21.558 99.200,22.589 99.200 C 22.925 99.200,23.200 99.380,23.200 99.600 C 23.200 99.820,23.560 100.000,24.000 100.000 C 24.533 100.000,24.800 100.267,24.800 100.800 C 24.800 101.240,24.980 101.600,25.200 101.600 C 25.465 101.600,25.600 129.139,25.600 183.418 L 25.600 265.236 24.618 266.218 C 24.078 266.758,23.358 267.200,23.018 267.200 C 22.678 267.200,22.400 267.380,22.400 267.600 C 22.400 267.820,22.124 268.000,21.787 268.000 C 20.779 268.000,18.400 270.660,18.400 271.787 C 18.400 272.344,18.220 272.800,18.000 272.800 C 17.749 272.800,17.600 275.333,17.600 279.600 C 17.600 283.867,17.749 286.400,18.000 286.400 C 18.220 286.400,18.400 286.858,18.400 287.418 C 18.400 288.729,20.071 290.400,21.382 290.400 C 21.942 290.400,22.400 290.580,22.400 290.800 C 22.400 291.033,23.733 291.200,25.600 291.200 C 27.467 291.200,28.800 291.367,28.800 291.600 C 28.800 291.863,37.733 292.000,54.800 292.000 C 71.867 292.000,80.800 291.863,80.800 291.600 C 80.800 291.367,82.133 291.200,84.000 291.200 C 85.867 291.200,87.200 291.033,87.200 290.800 C 87.200 290.580,87.478 290.400,87.818 290.400 C 88.618 290.400,90.400 288.618,90.400 287.818 C 90.400 287.478,90.580 287.200,90.800 287.200 C 91.022 287.200,91.200 286.133,91.200 284.800 C 91.200 283.467,91.378 282.400,91.600 282.400 C 91.833 282.400,92.000 281.067,92.000 279.200 C 92.000 277.333,91.833 276.000,91.600 276.000 C 91.378 276.000,91.200 274.933,91.200 273.600 C 91.200 272.267,91.022 271.200,90.800 271.200 C 90.580 271.200,90.400 270.917,90.400 270.571 C 90.400 269.800,89.449 268.800,88.717 268.800 C 88.420 268.800,87.917 268.440,87.600 268.000 C 87.283 267.560,86.785 267.200,86.494 267.200 C 86.202 267.200,85.522 266.758,84.982 266.218 L 84.000 265.236 84.000 235.418 L 84.000 205.600 113.418 205.600 L 142.836 205.600 143.818 206.582 C 144.358 207.122,144.800 207.842,144.800 208.182 C 144.800 208.522,144.980 208.800,145.200 208.800 C 145.420 208.800,145.600 209.160,145.600 209.600 C 145.600 210.040,145.780 210.400,146.000 210.400 C 146.220 210.400,146.400 210.683,146.400 211.029 C 146.400 211.837,147.363 212.800,148.171 212.800 C 148.517 212.800,148.800 212.980,148.800 213.200 C 148.800 213.420,149.520 213.600,150.400 213.600 C 151.280 213.600,152.000 213.780,152.000 214.000 C 152.000 214.245,153.908 214.400,156.925 214.400 C 161.296 214.400,161.946 214.490,162.708 215.200 C 163.180 215.640,163.804 216.000,164.095 216.000 C 164.386 216.000,164.883 216.360,165.200 216.800 C 165.517 217.240,166.057 217.600,166.400 217.600 C 166.743 217.600,167.283 217.960,167.600 218.400 C 167.917 218.840,168.457 219.200,168.800 219.200 C 169.143 219.200,169.683 219.560,170.000 220.000 C 170.317 220.440,170.857 220.800,171.200 220.800 C 171.543 220.800,172.083 221.160,172.400 221.600 C 172.717 222.040,173.257 222.400,173.600 222.400 C 173.943 222.400,174.483 222.760,174.800 223.200 C 175.117 223.640,175.657 224.000,176.000 224.000 C 176.343 224.000,176.883 224.360,177.200 224.800 C 177.517 225.240,178.057 225.600,178.400 225.600 C 178.743 225.600,179.283 225.960,179.600 226.400 C 179.917 226.840,180.457 227.200,180.800 227.200 C 181.143 227.200,181.683 227.560,182.000 228.000 C 182.317 228.440,182.857 228.800,183.200 228.800 C 183.543 228.800,184.083 229.160,184.400 229.600 C 184.717 230.040,185.257 230.400,185.600 230.400 C 185.943 230.400,186.483 230.760,186.800 231.200 C 187.117 231.640,187.657 232.000,188.000 232.000 C 188.343 232.000,188.883 232.360,189.200 232.800 C 189.517 233.240,190.057 233.600,190.400 233.600 C 190.743 233.600,191.283 233.960,191.600 234.400 C 191.917 234.840,192.457 235.200,192.800 235.200 C 193.143 235.200,193.683 235.560,194.000 236.000 C 194.317 236.440,194.857 236.800,195.200 236.800 C 195.543 236.800,196.083 237.160,196.400 237.600 C 196.717 238.040,197.257 238.400,197.600 238.400 C 197.943 238.400,198.483 238.760,198.800 239.200 C 199.117 239.640,199.657 240.000,200.000 240.000 C 200.343 240.000,200.883 240.360,201.200 240.800 C 201.517 241.240,202.025 241.600,202.328 241.600 C 202.631 241.600,203.383 242.140,204.000 242.800 C 204.617 243.460,205.369 244.000,205.672 244.000 C 205.975 244.000,206.483 244.360,206.800 244.800 C 207.117 245.240,207.657 245.600,208.000 245.600 C 208.343 245.600,208.883 245.960,209.200 246.400 C 209.517 246.840,210.057 247.200,210.400 247.200 C 210.743 247.200,211.283 247.560,211.600 248.000 C 211.917 248.440,212.457 248.800,212.800 248.800 C 213.143 248.800,213.683 249.160,214.000 249.600 C 214.317 250.040,214.857 250.400,215.200 250.400 C 215.543 250.400,216.083 250.760,216.400 251.200 C 216.717 251.640,217.257 252.000,217.600 252.000 C 217.943 252.000,218.483 252.360,218.800 252.800 C 219.117 253.240,219.657 253.600,220.000 253.600 C 220.343 253.600,220.883 253.960,221.200 254.400 C 221.517 254.840,222.057 255.200,222.400 255.200 C 222.743 255.200,223.283 255.560,223.600 256.000 C 223.917 256.440,224.457 256.800,224.800 256.800 C 225.143 256.800,225.683 257.160,226.000 257.600 C 226.317 258.040,226.857 258.400,227.200 258.400 C 227.543 258.400,228.083 258.760,228.400 259.200 C 228.717 259.640,229.257 260.000,229.600 260.000 C 229.943 260.000,230.483 260.360,230.800 260.800 C 231.117 261.240,231.657 261.600,232.000 261.600 C 232.343 261.600,232.883 261.960,233.200 262.400 C 233.517 262.840,234.057 263.200,234.400 263.200 C 234.743 263.200,235.283 263.560,235.600 264.000 C 235.917 264.440,236.457 264.800,236.800 264.800 C 237.143 264.800,237.683 265.160,238.000 265.600 C 238.317 266.040,238.857 266.400,239.200 266.400 C 239.543 266.400,240.083 266.760,240.400 267.200 C 240.717 267.640,241.257 268.000,241.600 268.000 C 241.943 268.000,242.483 268.360,242.800 268.800 C 243.117 269.240,243.625 269.600,243.928 269.600 C 244.231 269.600,244.983 270.140,245.600 270.800 C 246.217 271.460,246.969 272.000,247.272 272.000 C 247.575 272.000,248.083 272.360,248.400 272.800 C 248.717 273.240,249.257 273.600,249.600 273.600 C 249.943 273.600,250.483 273.960,250.800 274.400 C 251.117 274.840,251.697 275.200,252.088 275.200 C 252.480 275.200,252.800 275.380,252.800 275.600 C 252.800 275.820,253.160 276.000,253.600 276.000 C 254.040 276.000,254.400 276.180,254.400 276.400 C 254.400 276.629,255.600 276.800,257.200 276.800 C 258.800 276.800,260.000 276.971,260.000 277.200 C 260.000 277.420,260.900 277.600,262.000 277.600 C 263.100 277.600,264.000 277.420,264.000 277.200 C 264.000 276.947,266.933 276.800,272.000 276.800 C 277.067 276.800,280.000 276.653,280.000 276.400 C 280.000 276.180,280.500 276.000,281.112 276.000 C 281.765 276.000,282.461 275.670,282.800 275.200 C 283.117 274.760,283.657 274.400,284.000 274.400 C 284.343 274.400,284.883 274.040,285.200 273.600 C 285.517 273.160,286.057 272.800,286.400 272.800 C 286.743 272.800,287.283 272.440,287.600 272.000 C 287.917 271.560,288.425 271.200,288.728 271.200 C 289.031 271.200,289.783 270.660,290.400 270.000 C 291.017 269.340,291.769 268.800,292.072 268.800 C 292.375 268.800,292.883 268.440,293.200 268.000 C 293.517 267.560,294.057 267.200,294.400 267.200 C 294.743 267.200,295.283 266.840,295.600 266.400 C 295.917 265.960,296.457 265.600,296.800 265.600 C 297.143 265.600,297.683 265.240,298.000 264.800 C 298.317 264.360,298.857 264.000,299.200 264.000 C 299.543 264.000,300.083 263.640,300.400 263.200 C 300.717 262.760,301.257 262.400,301.600 262.400 C 301.943 262.400,302.483 262.040,302.800 261.600 C 303.117 261.160,303.657 260.800,304.000 260.800 C 304.343 260.800,304.883 260.440,305.200 260.000 C 305.517 259.560,306.057 259.200,306.400 259.200 C 306.743 259.200,307.283 258.840,307.600 258.400 C 307.917 257.960,308.457 257.600,308.800 257.600 C 309.143 257.600,309.683 257.240,310.000 256.800 C 310.317 256.360,310.825 256.000,311.128 256.000 C 311.431 256.000,312.183 255.460,312.800 254.800 C 313.417 254.140,314.169 253.600,314.472 253.600 C 314.775 253.600,315.283 253.240,315.600 252.800 C 315.917 252.360,316.457 252.000,316.800 252.000 C 317.143 252.000,317.683 251.640,318.000 251.200 C 318.317 250.760,318.857 250.400,319.200 250.400 C 319.543 250.400,320.083 250.040,320.400 249.600 C 320.717 249.160,321.257 248.800,321.600 248.800 C 321.943 248.800,322.483 248.440,322.800 248.000 C 323.117 247.560,323.657 247.200,324.000 247.200 C 324.343 247.200,324.883 246.840,325.200 246.400 C 325.517 245.960,326.057 245.600,326.400 245.600 C 326.743 245.600,327.283 245.240,327.600 244.800 C 327.917 244.360,328.457 244.000,328.800 244.000 C 329.143 244.000,329.683 243.640,330.000 243.200 C 330.317 242.760,330.857 242.400,331.200 242.400 C 331.543 242.400,332.083 242.040,332.400 241.600 C 332.717 241.160,333.225 240.800,333.528 240.800 C 333.831 240.800,334.583 240.260,335.200 239.600 C 335.817 238.940,336.569 238.400,336.872 238.400 C 337.175 238.400,337.683 238.040,338.000 237.600 C 338.317 237.160,338.857 236.800,339.200 236.800 C 339.543 236.800,340.083 236.440,340.400 236.000 C 340.717 235.560,341.257 235.200,341.600 235.200 C 341.943 235.200,342.483 234.840,342.800 234.400 C 343.117 233.960,343.657 233.600,344.000 233.600 C 344.343 233.600,344.883 233.240,345.200 232.800 C 345.517 232.360,346.057 232.000,346.400 232.000 C 346.743 232.000,347.283 231.640,347.600 231.200 C 347.917 230.760,348.457 230.400,348.800 230.400 C 349.143 230.400,349.683 230.040,350.000 229.600 C 350.317 229.160,350.857 228.800,351.200 228.800 C 351.543 228.800,352.083 228.440,352.400 228.000 C 352.717 227.560,353.257 227.200,353.600 227.200 C 353.943 227.200,354.483 226.840,354.800 226.400 C 355.117 225.960,355.625 225.600,355.928 225.600 C 356.231 225.600,356.983 225.060,357.600 224.400 C 358.217 223.740,358.969 223.200,359.272 223.200 C 359.575 223.200,360.083 222.840,360.400 222.400 C 360.717 221.960,361.257 221.600,361.600 221.600 C 361.943 221.600,362.483 221.240,362.800 220.800 C 363.117 220.360,363.657 220.000,364.000 220.000 C 364.343 220.000,364.883 219.640,365.200 219.200 C 365.517 218.760,366.057 218.400,366.400 218.400 C 366.743 218.400,367.283 218.040,367.600 217.600 C 367.917 217.160,368.457 216.800,368.800 216.800 C 369.143 216.800,369.683 216.440,370.000 216.000 C 370.317 215.560,370.857 215.200,371.200 215.200 C 371.543 215.200,372.083 214.840,372.400 214.400 C 372.717 213.960,373.257 213.600,373.600 213.600 C 373.943 213.600,374.483 213.240,374.800 212.800 C 375.117 212.360,375.657 212.000,376.000 212.000 C 376.343 212.000,376.883 211.640,377.200 211.200 C 377.517 210.760,378.013 210.400,378.302 210.400 C 379.031 210.400,381.600 207.762,381.600 207.013 C 381.600 206.676,381.780 206.400,382.000 206.400 C 382.220 206.400,382.400 205.500,382.400 204.400 C 382.400 203.300,382.580 202.400,382.800 202.400 C 383.062 202.400,383.200 194.267,383.200 178.800 C 383.200 163.333,383.062 155.200,382.800 155.200 C 382.580 155.200,382.400 154.300,382.400 153.200 C 382.400 152.100,382.220 151.200,382.000 151.200 C 381.780 151.200,381.600 150.924,381.600 150.587 C 381.600 149.879,379.048 147.200,378.374 147.200 C 378.125 147.200,377.417 146.660,376.800 146.000 C 376.183 145.340,375.431 144.800,375.128 144.800 C 374.825 144.800,374.317 144.440,374.000 144.000 C 373.683 143.560,373.143 143.200,372.800 143.200 C 372.457 143.200,371.917 142.840,371.600 142.400 C 371.283 141.960,370.743 141.600,370.400 141.600 C 370.057 141.600,369.517 141.240,369.200 140.800 C 368.883 140.360,368.343 140.000,368.000 140.000 C 367.657 140.000,367.117 139.640,366.800 139.200 C 366.483 138.760,365.943 138.400,365.600 138.400 C 365.257 138.400,364.717 138.040,364.400 137.600 C 364.083 137.160,363.543 136.800,363.200 136.800 C 362.857 136.800,362.317 136.440,362.000 136.000 C 361.683 135.560,361.143 135.200,360.800 135.200 C 360.457 135.200,359.917 134.840,359.600 134.400 C 359.283 133.960,358.743 133.600,358.400 133.600 C 358.057 133.600,357.517 133.240,357.200 132.800 C 356.883 132.360,356.343 132.000,356.000 132.000 C 355.657 132.000,355.117 131.640,354.800 131.200 C 354.483 130.760,353.943 130.400,353.600 130.400 C 353.257 130.400,352.717 130.040,352.400 129.600 C 352.083 129.160,351.543 128.800,351.200 128.800 C 350.857 128.800,350.317 128.440,350.000 128.000 C 349.683 127.560,349.143 127.200,348.800 127.200 C 348.457 127.200,347.917 126.840,347.600 126.400 C 347.283 125.960,346.743 125.600,346.400 125.600 C 346.057 125.600,345.517 125.240,345.200 124.800 C 344.883 124.360,344.343 124.000,344.000 124.000 C 343.657 124.000,343.117 123.640,342.800 123.200 C 342.483 122.760,341.943 122.400,341.600 122.400 C 341.257 122.400,340.717 122.040,340.400 121.600 C 340.083 121.160,339.543 120.800,339.200 120.800 C 338.857 120.800,338.317 120.440,338.000 120.000 C 337.683 119.560,337.143 119.200,336.800 119.200 C 336.457 119.200,335.917 118.840,335.600 118.400 C 335.283 117.960,334.743 117.600,334.400 117.600 C 334.057 117.600,333.517 117.240,333.200 116.800 C 332.883 116.360,332.343 116.000,332.000 116.000 C 331.657 116.000,331.117 115.640,330.800 115.200 C 330.483 114.760,329.943 114.400,329.600 114.400 C 329.257 114.400,328.717 114.040,328.400 113.600 C 328.083 113.160,327.543 112.800,327.200 112.800 C 326.857 112.800,326.317 112.440,326.000 112.000 C 325.683 111.560,325.143 111.200,324.800 111.200 C 324.457 111.200,323.917 110.840,323.600 110.400 C 323.283 109.960,322.743 109.600,322.400 109.600 C 322.057 109.600,321.517 109.240,321.200 108.800 C 320.883 108.360,320.343 108.000,320.000 108.000 C 319.657 108.000,319.117 107.640,318.800 107.200 C 318.483 106.760,317.943 106.400,317.600 106.400 C 317.257 106.400,316.717 106.040,316.400 105.600 C 316.083 105.160,315.543 104.800,315.200 104.800 C 314.857 104.800,314.317 104.440,314.000 104.000 C 313.683 103.560,313.143 103.200,312.800 103.200 C 312.457 103.200,311.917 102.840,311.600 102.400 C 311.283 101.960,310.743 101.600,310.400 101.600 C 310.057 101.600,309.517 101.240,309.200 100.800 C 308.883 100.360,308.343 100.000,308.000 100.000 C 307.657 100.000,307.117 99.640,306.800 99.200 C 306.483 98.760,305.943 98.400,305.600 98.400 C 305.257 98.400,304.717 98.040,304.400 97.600 C 304.083 97.160,303.543 96.800,303.200 96.800 C 302.857 96.800,302.317 96.440,302.000 96.000 C 301.683 95.560,301.175 95.200,300.872 95.200 C 300.569 95.200,299.817 94.660,299.200 94.000 C 298.583 93.340,297.831 92.800,297.528 92.800 C 297.225 92.800,296.717 92.440,296.400 92.000 C 296.083 91.560,295.543 91.200,295.200 91.200 C 294.857 91.200,294.317 90.840,294.000 90.400 C 293.683 89.960,293.143 89.600,292.800 89.600 C 292.457 89.600,291.917 89.240,291.600 88.800 C 291.283 88.360,290.743 88.000,290.400 88.000 C 290.057 88.000,289.517 87.640,289.200 87.200 C 288.883 86.760,288.343 86.400,288.000 86.400 C 287.657 86.400,287.117 86.040,286.800 85.600 C 286.483 85.160,285.943 84.800,285.600 84.800 C 285.257 84.800,284.717 84.440,284.400 84.000 C 284.083 83.560,283.503 83.200,283.112 83.200 C 282.720 83.200,282.400 83.020,282.400 82.800 C 282.400 82.580,282.040 82.400,281.600 82.400 C 281.160 82.400,280.800 82.220,280.800 82.000 C 280.800 81.778,279.733 81.600,278.400 81.600 C 277.067 81.600,276.000 81.422,276.000 81.200 C 276.000 80.971,274.800 80.800,273.200 80.800 C 271.600 80.800,270.400 80.971,270.400 81.200 C 270.400 81.452,267.733 81.600,263.200 81.600 C 258.667 81.600,256.000 81.748,256.000 82.000 C 256.000 82.220,255.460 82.400,254.800 82.400 C 254.140 82.400,253.600 82.580,253.600 82.800 C 253.600 83.020,253.280 83.200,252.888 83.200 C 252.497 83.200,251.917 83.560,251.600 84.000 C 251.283 84.440,250.743 84.800,250.400 84.800 C 250.057 84.800,249.517 85.160,249.200 85.600 C 248.883 86.040,248.343 86.400,248.000 86.400 C 247.657 86.400,247.117 86.760,246.800 87.200 C 246.483 87.640,245.943 88.000,245.600 88.000 C 245.257 88.000,244.717 88.360,244.400 88.800 C 244.083 89.240,243.543 89.600,243.200 89.600 C 242.857 89.600,242.317 89.960,242.000 90.400 C 241.683 90.840,241.143 91.200,240.800 91.200 C 240.457 91.200,239.917 91.560,239.600 92.000 C 239.283 92.440,238.743 92.800,238.400 92.800 C 238.057 92.800,237.517 93.160,237.200 93.600 C 236.883 94.040,236.343 94.400,236.000 94.400 C 235.657 94.400,235.117 94.760,234.800 95.200 C 234.483 95.640,233.943 96.000,233.600 96.000 C 233.257 96.000,232.717 96.360,232.400 96.800 C 232.083 97.240,231.575 97.600,231.272 97.600 C 230.969 97.600,230.217 98.140,229.600 98.800 C 228.983 99.460,228.231 100.000,227.928 100.000 C 227.625 100.000,227.117 100.360,226.800 100.800 C 226.483 101.240,225.943 101.600,225.600 101.600 C 225.257 101.600,224.717 101.960,224.400 102.400 C 224.083 102.840,223.543 103.200,223.200 103.200 C 222.857 103.200,222.317 103.560,222.000 104.000 C 221.683 104.440,221.143 104.800,220.800 104.800 C 220.457 104.800,219.917 105.160,219.600 105.600 C 219.283 106.040,218.743 106.400,218.400 106.400 C 218.057 106.400,217.517 106.760,217.200 107.200 C 216.883 107.640,216.343 108.000,216.000 108.000 C 215.657 108.000,215.117 108.360,214.800 108.800 C 214.483 109.240,213.943 109.600,213.600 109.600 C 213.257 109.600,212.717 109.960,212.400 110.400 C 212.083 110.840,211.543 111.200,211.200 111.200 C 210.857 111.200,210.317 111.560,210.000 112.000 C 209.683 112.440,209.103 112.800,208.712 112.800 C 208.320 112.800,208.000 112.980,208.000 113.200 C 208.000 113.420,207.820 113.600,207.600 113.600 C 207.339 113.600,207.200 107.333,207.200 95.600 C 207.200 83.867,207.061 77.600,206.800 77.600 C 206.567 77.600,206.400 76.267,206.400 74.400 C 206.400 72.533,206.233 71.200,206.000 71.200 C 205.780 71.200,205.600 70.742,205.600 70.182 C 205.600 69.059,203.990 67.200,203.018 67.200 C 202.678 67.200,202.400 67.020,202.400 66.800 C 202.400 66.548,199.733 66.400,195.200 66.400 C 190.667 66.400,188.000 66.548,188.000 66.800 M197.724 95.700 C 197.511 125.256,197.773 122.400,195.275 122.400 C 193.001 122.400,192.385 121.865,191.634 119.236 C 190.831 116.427,189.465 114.613,187.434 113.658 L 185.603 112.797 130.101 112.899 L 74.600 113.000 74.497 135.900 L 74.393 158.800 111.173 158.800 C 135.261 158.800,148.038 158.662,148.200 158.400 C 148.336 158.180,148.761 158.000,149.145 158.000 C 149.992 158.000,152.043 155.848,152.766 154.200 C 153.056 153.540,153.452 152.687,153.647 152.305 C 153.841 151.923,154.000 151.284,154.000 150.885 C 154.000 149.653,154.869 149.200,157.231 149.200 C 160.497 149.200,160.370 148.577,159.921 162.400 C 159.703 169.110,159.607 180.303,159.709 187.273 C 159.913 201.354,160.019 200.800,157.144 200.800 C 155.046 200.800,154.929 200.692,153.909 197.825 C 151.369 190.685,154.595 191.176,111.062 191.298 L 74.600 191.400 74.600 228.400 L 74.600 265.400 75.489 267.062 C 76.439 268.839,77.925 270.212,79.333 270.615 C 82.511 271.525,82.800 271.857,82.800 274.595 C 82.800 276.002,82.629 277.258,82.421 277.387 C 81.595 277.897,26.655 277.611,26.317 277.095 C 25.763 276.249,26.133 272.319,26.800 271.957 C 27.130 271.779,28.456 271.135,29.747 270.528 C 32.353 269.302,33.704 267.800,34.357 265.400 C 34.882 263.471,34.979 93.819,34.456 91.591 C 33.773 88.681,32.209 87.106,28.706 85.801 C 26.167 84.856,25.940 84.487,26.080 81.535 L 26.200 79.000 106.564 78.899 L 186.927 78.798 188.222 77.810 C 189.600 76.759,191.600 73.202,191.600 71.801 C 191.600 70.397,192.402 70.000,195.235 70.000 L 197.909 70.000 197.724 95.700 M273.508 84.400 C 273.980 84.840,274.520 85.200,274.708 85.200 C 274.896 85.200,275.398 85.515,275.825 85.900 C 276.251 86.285,277.095 86.855,277.700 87.168 C 278.305 87.480,278.800 87.885,278.800 88.068 C 278.800 88.250,279.042 88.400,279.338 88.400 C 279.634 88.400,280.202 88.760,280.600 89.200 C 280.998 89.640,281.566 90.000,281.862 90.000 C 282.158 90.000,282.400 90.150,282.400 90.332 C 282.400 90.515,282.895 90.920,283.500 91.232 C 284.105 91.545,284.949 92.115,285.375 92.500 C 285.802 92.885,286.387 93.200,286.675 93.200 C 286.964 93.200,287.200 93.350,287.200 93.532 C 287.200 93.715,287.695 94.120,288.300 94.432 C 288.905 94.745,289.749 95.315,290.175 95.700 C 290.602 96.085,291.172 96.400,291.442 96.400 C 291.712 96.400,291.993 96.553,292.067 96.741 C 292.161 96.982,344.278 132.026,351.940 137.000 C 352.279 137.220,352.915 137.715,353.354 138.100 C 353.792 138.485,354.387 138.800,354.675 138.800 C 354.964 138.800,355.200 138.950,355.200 139.132 C 355.200 139.315,355.695 139.720,356.300 140.032 C 356.905 140.345,357.749 140.915,358.175 141.300 C 358.602 141.685,359.187 142.000,359.475 142.000 C 359.764 142.000,360.000 142.150,360.000 142.332 C 360.000 142.515,360.495 142.920,361.100 143.232 C 361.705 143.545,362.549 144.115,362.975 144.500 C 363.402 144.885,363.987 145.200,364.275 145.200 C 364.564 145.200,364.800 145.350,364.800 145.532 C 364.800 145.715,365.292 146.120,365.894 146.432 C 366.496 146.745,367.261 147.221,367.594 147.492 C 367.927 147.762,369.460 148.845,371.000 149.897 L 373.800 151.811 373.903 173.335 C 373.960 185.173,373.870 195.094,373.703 195.383 C 373.537 195.671,369.620 198.441,365.000 201.538 C 360.380 204.636,351.560 210.594,345.400 214.780 C 339.240 218.965,329.250 225.746,323.200 229.848 C 309.631 239.048,291.696 251.220,283.533 256.770 C 280.160 259.063,276.447 261.639,275.282 262.495 C 271.638 265.173,271.926 267.202,271.843 238.256 L 271.769 212.712 273.022 211.756 C 273.712 211.230,274.400 210.800,274.553 210.800 C 274.706 210.800,276.437 209.720,278.400 208.400 C 280.363 207.080,282.073 206.000,282.200 206.000 C 282.327 206.000,284.037 204.920,286.000 203.600 C 287.963 202.280,289.756 201.200,289.985 201.200 C 290.213 201.200,290.400 201.020,290.400 200.800 C 290.400 200.580,290.588 200.400,290.818 200.400 C 291.048 200.400,292.570 199.500,294.200 198.400 C 295.830 197.300,297.269 196.400,297.397 196.400 C 297.526 196.400,299.237 195.320,301.200 194.000 C 303.163 192.680,304.956 191.600,305.185 191.600 C 305.413 191.600,305.600 191.420,305.600 191.200 C 305.600 190.980,305.788 190.800,306.018 190.800 C 306.248 190.800,307.770 189.900,309.400 188.800 C 311.030 187.700,312.470 186.800,312.600 186.800 C 312.730 186.800,314.157 185.909,315.771 184.820 C 317.385 183.731,319.312 182.491,320.053 182.065 C 320.794 181.639,323.200 180.253,325.400 178.984 C 327.600 177.716,330.163 176.241,331.096 175.707 C 333.458 174.354,333.459 174.244,331.098 172.780 C 329.944 172.064,327.571 170.561,325.825 169.439 C 324.079 168.318,322.322 167.220,321.922 167.000 C 321.521 166.780,319.800 165.714,318.097 164.631 C 314.799 162.534,309.434 159.153,304.200 155.874 C 302.440 154.771,299.571 152.953,297.825 151.834 C 296.079 150.715,294.327 149.620,293.933 149.400 C 293.538 149.180,289.027 146.377,283.908 143.171 C 278.789 139.965,274.015 137.001,273.300 136.584 C 272.585 136.168,272.005 135.551,272.011 135.214 C 272.016 134.876,271.930 123.241,271.818 109.359 C 271.707 95.476,271.732 84.001,271.875 83.859 C 272.287 83.446,272.593 83.548,273.508 84.400 M263.372 110.091 C 263.251 124.221,263.118 135.810,263.076 135.845 C 263.034 135.880,260.750 137.302,258.000 139.004 C 255.250 140.707,251.110 143.312,248.800 144.794 C 240.168 150.331,237.203 152.211,236.486 152.600 C 236.081 152.820,234.231 153.974,232.375 155.164 C 227.489 158.296,221.082 162.369,217.400 164.683 C 215.640 165.789,212.220 167.951,209.800 169.488 C 207.380 171.025,204.717 172.689,203.881 173.185 C 203.046 173.682,202.428 174.293,202.508 174.544 C 202.631 174.929,211.365 180.262,213.200 181.073 C 213.530 181.218,214.825 182.027,216.078 182.869 C 217.331 183.711,218.464 184.400,218.596 184.400 C 218.728 184.400,220.170 185.300,221.800 186.400 C 223.430 187.500,224.870 188.400,225.000 188.400 C 225.130 188.400,226.570 189.300,228.200 190.400 C 229.830 191.500,231.270 192.400,231.400 192.400 C 231.530 192.400,232.970 193.300,234.600 194.400 C 236.230 195.500,237.752 196.400,237.982 196.400 C 238.212 196.400,238.400 196.580,238.400 196.800 C 238.400 197.020,238.590 197.200,238.822 197.200 C 239.054 197.200,240.304 197.920,241.600 198.800 C 242.896 199.680,244.146 200.400,244.378 200.400 C 244.610 200.400,244.800 200.580,244.800 200.800 C 244.800 201.020,244.990 201.200,245.222 201.200 C 245.454 201.200,246.704 201.920,248.000 202.800 C 249.296 203.680,250.546 204.400,250.778 204.400 C 251.010 204.400,251.200 204.580,251.200 204.800 C 251.200 205.020,251.388 205.200,251.618 205.200 C 251.848 205.200,253.333 206.059,254.918 207.110 C 256.503 208.160,258.250 209.249,258.800 209.529 C 259.350 209.809,260.619 210.635,261.621 211.365 L 263.441 212.693 263.367 238.366 C 263.294 264.057,263.255 264.905,262.191 264.186 C 261.877 263.974,257.101 260.740,251.578 257.000 C 239.750 248.991,206.570 226.661,180.514 209.174 C 170.346 202.350,161.945 196.635,161.846 196.474 C 161.746 196.313,161.619 186.433,161.563 174.520 L 161.461 152.859 163.291 151.463 C 164.297 150.695,167.883 148.223,171.260 145.970 C 174.637 143.717,177.490 141.767,177.600 141.636 C 177.710 141.506,178.295 141.144,178.900 140.832 C 179.505 140.520,180.000 140.115,180.000 139.932 C 180.000 139.750,180.236 139.600,180.525 139.600 C 180.813 139.600,181.403 139.271,181.835 138.868 C 182.818 137.952,192.265 131.608,192.688 131.579 C 192.860 131.567,194.260 130.670,195.800 129.585 C 197.340 128.499,201.030 125.958,204.000 123.936 C 206.970 121.915,209.460 120.112,209.533 119.930 C 209.607 119.749,209.877 119.596,210.133 119.591 C 210.390 119.586,211.050 119.216,211.600 118.769 C 212.150 118.322,217.460 114.698,223.400 110.717 C 229.340 106.735,234.260 103.325,234.333 103.139 C 234.407 102.952,234.688 102.800,234.958 102.800 C 235.228 102.800,235.798 102.485,236.225 102.100 C 236.651 101.715,237.495 101.145,238.100 100.832 C 238.705 100.520,239.200 100.115,239.200 99.932 C 239.200 99.750,239.425 99.596,239.700 99.591 C 239.975 99.586,240.650 99.217,241.200 98.770 C 242.008 98.114,254.782 89.321,257.137 87.800 C 257.478 87.580,258.115 87.085,258.554 86.700 C 258.992 86.315,259.504 86.000,259.692 86.000 C 259.880 86.000,260.420 85.640,260.892 85.200 C 261.364 84.760,262.165 84.400,262.671 84.400 L 263.591 84.400 263.372 110.091 M181.756 127.700 C 182.944 128.890,182.871 131.200,181.646 131.200 C 181.278 131.200,180.717 131.560,180.400 132.000 C 180.083 132.440,179.543 132.800,179.200 132.800 C 178.857 132.800,178.317 133.160,178.000 133.600 C 177.683 134.040,177.143 134.400,176.800 134.400 C 176.457 134.400,175.917 134.760,175.600 135.200 C 175.283 135.640,174.743 136.000,174.400 136.000 C 174.057 136.000,173.517 136.360,173.200 136.800 C 172.883 137.240,172.375 137.600,172.072 137.600 C 171.769 137.600,171.017 138.140,170.400 138.800 C 169.783 139.460,169.031 140.000,168.728 140.000 C 168.425 140.000,167.917 140.360,167.600 140.800 C 167.283 141.240,166.743 141.600,166.400 141.600 C 166.057 141.600,165.517 141.960,165.200 142.400 C 164.883 142.840,164.343 143.200,164.000 143.200 C 163.657 143.200,163.117 143.560,162.800 144.000 C 162.483 144.440,161.914 144.800,161.535 144.800 C 161.157 144.800,160.736 144.980,160.600 145.200 C 160.461 145.425,158.529 145.600,156.176 145.600 C 153.659 145.600,152.000 145.759,152.000 146.000 C 152.000 146.220,151.280 146.400,150.400 146.400 C 149.520 146.400,148.800 146.580,148.800 146.800 C 148.800 147.020,148.517 147.200,148.171 147.200 C 147.363 147.200,146.400 148.163,146.400 148.971 C 146.400 149.317,146.220 149.600,146.000 149.600 C 145.780 149.600,145.600 149.960,145.600 150.400 C 145.600 150.840,145.420 151.200,145.200 151.200 C 144.980 151.200,144.800 151.478,144.800 151.818 C 144.800 152.158,144.358 152.878,143.818 153.418 L 142.836 154.400 113.418 154.400 L 84.000 154.400 84.000 140.800 L 84.000 127.200 132.629 127.200 C 170.999 127.200,181.362 127.305,181.756 127.700 M270.047 152.064 C 270.403 152.469,270.988 152.800,271.347 152.800 C 271.706 152.800,272.000 152.980,272.000 153.200 C 272.000 153.420,272.320 153.600,272.712 153.600 C 273.103 153.600,273.683 153.960,274.000 154.400 C 274.317 154.840,274.857 155.200,275.200 155.200 C 275.543 155.200,276.083 155.560,276.400 156.000 C 276.717 156.440,277.297 156.800,277.688 156.800 C 278.080 156.800,278.400 156.980,278.400 157.200 C 278.400 157.420,278.720 157.600,279.112 157.600 C 279.503 157.600,280.083 157.960,280.400 158.400 C 280.717 158.840,281.257 159.200,281.600 159.200 C 281.943 159.200,282.483 159.560,282.800 160.000 C 283.117 160.440,283.697 160.800,284.088 160.800 C 284.480 160.800,284.800 160.980,284.800 161.200 C 284.800 161.420,285.120 161.600,285.512 161.600 C 285.903 161.600,286.483 161.960,286.800 162.400 C 287.117 162.840,287.657 163.200,288.000 163.200 C 288.343 163.200,288.883 163.560,289.200 164.000 C 289.517 164.440,290.097 164.800,290.488 164.800 C 290.880 164.800,291.200 164.980,291.200 165.200 C 291.200 165.420,291.520 165.600,291.912 165.600 C 292.303 165.600,292.883 165.960,293.200 166.400 C 293.517 166.840,294.057 167.200,294.400 167.200 C 294.743 167.200,295.283 167.560,295.600 168.000 C 295.917 168.440,296.497 168.800,296.888 168.800 C 297.280 168.800,297.600 168.980,297.600 169.200 C 297.600 169.420,297.920 169.600,298.312 169.600 C 298.703 169.600,299.283 169.960,299.600 170.400 C 299.917 170.840,300.457 171.200,300.800 171.200 C 301.143 171.200,301.683 171.560,302.000 172.000 C 302.317 172.440,302.857 172.800,303.200 172.800 C 303.543 172.800,304.083 173.160,304.400 173.600 C 304.717 174.040,305.297 174.400,305.688 174.400 C 306.080 174.400,306.400 174.580,306.400 174.800 C 306.400 175.020,306.720 175.200,307.112 175.200 C 307.503 175.200,308.083 175.560,308.400 176.000 C 308.717 176.440,309.215 176.800,309.506 176.800 C 310.150 176.800,312.000 178.588,312.000 179.210 C 312.000 179.828,310.971 180.800,310.317 180.800 C 310.020 180.800,309.517 181.160,309.200 181.600 C 308.883 182.040,308.303 182.400,307.912 182.400 C 307.520 182.400,307.200 182.580,307.200 182.800 C 307.200 183.020,306.880 183.200,306.488 183.200 C 306.097 183.200,305.517 183.560,305.200 184.000 C 304.883 184.440,304.343 184.800,304.000 184.800 C 303.657 184.800,303.117 185.160,302.800 185.600 C 302.483 186.040,301.943 186.400,301.600 186.400 C 301.257 186.400,300.717 186.760,300.400 187.200 C 300.083 187.640,299.503 188.000,299.112 188.000 C 298.720 188.000,298.400 188.180,298.400 188.400 C 298.400 188.620,298.080 188.800,297.688 188.800 C 297.297 188.800,296.717 189.160,296.400 189.600 C 296.083 190.040,295.543 190.400,295.200 190.400 C 294.857 190.400,294.317 190.760,294.000 191.200 C 293.683 191.640,293.103 192.000,292.712 192.000 C 292.320 192.000,292.000 192.180,292.000 192.400 C 292.000 192.620,291.680 192.800,291.288 192.800 C 290.897 192.800,290.317 193.160,290.000 193.600 C 289.683 194.040,289.143 194.400,288.800 194.400 C 288.457 194.400,287.917 194.760,287.600 195.200 C 287.283 195.640,286.743 196.000,286.400 196.000 C 286.057 196.000,285.517 196.360,285.200 196.800 C 284.883 197.240,284.303 197.600,283.912 197.600 C 283.520 197.600,283.200 197.780,283.200 198.000 C 283.200 198.220,282.880 198.400,282.488 198.400 C 282.097 198.400,281.517 198.760,281.200 199.200 C 280.883 199.640,280.343 200.000,280.000 200.000 C 279.657 200.000,279.117 200.360,278.800 200.800 C 278.483 201.240,277.903 201.600,277.512 201.600 C 277.120 201.600,276.800 201.780,276.800 202.000 C 276.800 202.220,276.480 202.400,276.088 202.400 C 275.697 202.400,275.117 202.760,274.800 203.200 C 274.483 203.640,273.943 204.000,273.600 204.000 C 273.257 204.000,272.717 204.360,272.400 204.800 C 272.083 205.240,271.503 205.600,271.112 205.600 C 270.720 205.600,270.400 205.780,270.400 206.000 C 270.400 206.220,270.117 206.400,269.771 206.400 C 269.426 206.400,268.873 206.670,268.543 207.000 C 268.213 207.330,267.789 207.600,267.600 207.600 C 267.411 207.600,266.987 207.330,266.657 207.000 C 266.327 206.670,265.774 206.400,265.429 206.400 C 265.083 206.400,264.800 206.220,264.800 206.000 C 264.800 205.780,264.480 205.600,264.088 205.600 C 263.697 205.600,263.117 205.240,262.800 204.800 C 262.483 204.360,261.943 204.000,261.600 204.000 C 261.257 204.000,260.717 203.640,260.400 203.200 C 260.083 202.760,259.503 202.400,259.112 202.400 C 258.720 202.400,258.400 202.220,258.400 202.000 C 258.400 201.780,258.080 201.600,257.688 201.600 C 257.297 201.600,256.717 201.240,256.400 200.800 C 256.083 200.360,255.543 200.000,255.200 200.000 C 254.857 200.000,254.317 199.640,254.000 199.200 C 253.683 198.760,253.103 198.400,252.712 198.400 C 252.320 198.400,252.000 198.220,252.000 198.000 C 252.000 197.780,251.680 197.600,251.288 197.600 C 250.897 197.600,250.317 197.240,250.000 196.800 C 249.683 196.360,249.143 196.000,248.800 196.000 C 248.457 196.000,247.917 195.640,247.600 195.200 C 247.283 194.760,246.703 194.400,246.312 194.400 C 245.920 194.400,245.600 194.220,245.600 194.000 C 245.600 193.780,245.280 193.600,244.888 193.600 C 244.497 193.600,243.917 193.240,243.600 192.800 C 243.283 192.360,242.743 192.000,242.400 192.000 C 242.057 192.000,241.517 191.640,241.200 191.200 C 240.883 190.760,240.343 190.400,240.000 190.400 C 239.657 190.400,239.117 190.040,238.800 189.600 C 238.483 189.160,237.903 188.800,237.512 188.800 C 237.120 188.800,236.800 188.620,236.800 188.400 C 236.800 188.180,236.480 188.000,236.088 188.000 C 235.697 188.000,235.117 187.640,234.800 187.200 C 234.483 186.760,233.943 186.400,233.600 186.400 C 233.257 186.400,232.717 186.040,232.400 185.600 C 232.083 185.160,231.503 184.800,231.112 184.800 C 230.720 184.800,230.400 184.620,230.400 184.400 C 230.400 184.180,230.080 184.000,229.688 184.000 C 229.297 184.000,228.717 183.640,228.400 183.200 C 228.083 182.760,227.543 182.400,227.200 182.400 C 226.857 182.400,226.317 182.040,226.000 181.600 C 225.683 181.160,225.180 180.800,224.883 180.800 C 224.224 180.800,223.200 179.826,223.200 179.200 C 223.200 178.574,224.224 177.600,224.883 177.600 C 225.180 177.600,225.683 177.240,226.000 176.800 C 226.317 176.360,226.857 176.000,227.200 176.000 C 227.543 176.000,228.083 175.640,228.400 175.200 C 228.717 174.760,229.297 174.400,229.688 174.400 C 230.080 174.400,230.400 174.220,230.400 174.000 C 230.400 173.780,230.720 173.600,231.112 173.600 C 231.503 173.600,232.083 173.240,232.400 172.800 C 232.717 172.360,233.257 172.000,233.600 172.000 C 233.943 172.000,234.483 171.640,234.800 171.200 C 235.117 170.760,235.697 170.400,236.088 170.400 C 236.480 170.400,236.800 170.220,236.800 170.000 C 236.800 169.780,237.120 169.600,237.512 169.600 C 237.903 169.600,238.483 169.240,238.800 168.800 C 239.117 168.360,239.657 168.000,240.000 168.000 C 240.343 168.000,240.883 167.640,241.200 167.200 C 241.517 166.760,242.057 166.400,242.400 166.400 C 242.743 166.400,243.283 166.040,243.600 165.600 C 243.917 165.160,244.497 164.800,244.888 164.800 C 245.280 164.800,245.600 164.620,245.600 164.400 C 245.600 164.180,245.920 164.000,246.312 164.000 C 246.703 164.000,247.283 163.640,247.600 163.200 C 247.917 162.760,248.457 162.400,248.800 162.400 C 249.143 162.400,249.683 162.040,250.000 161.600 C 250.317 161.160,250.857 160.800,251.200 160.800 C 251.543 160.800,252.083 160.440,252.400 160.000 C 252.717 159.560,253.297 159.200,253.688 159.200 C 254.080 159.200,254.400 159.020,254.400 158.800 C 254.400 158.580,254.720 158.400,255.112 158.400 C 255.503 158.400,256.083 158.040,256.400 157.600 C 256.717 157.160,257.257 156.800,257.600 156.800 C 257.943 156.800,258.483 156.440,258.800 156.000 C 259.117 155.560,259.697 155.200,260.088 155.200 C 260.480 155.200,260.800 155.020,260.800 154.800 C 260.800 154.580,261.120 154.400,261.512 154.400 C 261.903 154.400,262.483 154.040,262.800 153.600 C 263.117 153.160,263.631 152.800,263.941 152.800 C 264.252 152.800,264.800 152.461,265.159 152.047 C 266.356 150.667,268.827 150.676,270.047 152.064 " stroke="none" fill="#051a12" fill-rule="evenodd"></path><path id="path3" d="M192.871 70.355 C 192.580 70.535,192.196 71.294,192.017 72.041 C 191.838 72.789,191.551 73.745,191.378 74.166 C 191.172 74.669,191.209 74.842,191.488 74.669 C 191.721 74.525,192.030 73.934,192.175 73.355 C 192.887 70.520,194.400 71.148,194.400 74.279 C 194.400 80.466,188.622 86.020,179.800 88.314 C 176.704 89.119,58.648 89.568,51.800 88.800 C 46.074 88.159,33.676 81.764,35.202 80.238 C 35.515 79.925,56.768 79.739,109.520 79.587 L 183.400 79.374 106.600 79.387 C 43.665 79.398,29.583 79.496,28.600 79.931 L 27.400 80.462 28.381 81.261 C 28.920 81.700,30.570 82.765,32.046 83.627 C 33.523 84.490,36.284 86.366,38.182 87.798 C 41.916 90.614,43.741 91.651,47.181 92.912 C 49.609 93.803,170.506 94.042,179.000 93.173 C 187.833 92.270,195.801 86.446,196.749 80.200 C 197.574 74.766,197.751 70.404,197.147 70.360 C 196.846 70.338,195.880 70.254,195.000 70.174 C 194.120 70.093,193.162 70.175,192.871 70.355 M272.134 89.300 C 272.700 100.098,273.722 101.055,311.967 126.608 C 336.881 143.254,353.202 154.140,355.405 155.583 C 358.818 157.819,364.837 158.548,368.284 157.142 C 373.489 155.021,374.575 153.414,372.126 151.458 C 369.634 149.467,349.690 135.982,351.450 137.478 C 351.917 137.875,355.544 140.408,359.510 143.108 C 368.776 149.415,369.162 150.362,362.479 150.387 C 358.426 150.403,356.818 149.651,348.000 143.620 C 340.770 138.674,291.907 106.036,290.000 104.879 C 289.230 104.412,287.713 103.554,286.628 102.972 C 285.544 102.390,284.406 101.663,284.100 101.357 C 283.794 101.051,283.421 100.797,283.271 100.793 C 282.132 100.764,277.027 94.836,275.452 91.713 C 273.383 87.609,274.064 86.074,277.165 87.853 C 279.493 89.189,278.929 88.633,275.549 86.261 C 271.764 83.603,271.832 83.543,272.134 89.300 M256.400 88.824 C 248.475 94.296,247.465 95.169,254.134 90.781 C 260.789 86.403,261.817 86.449,260.212 91.053 C 258.954 94.665,253.276 100.884,249.313 102.990 C 248.261 103.550,247.040 104.231,246.600 104.504 C 244.835 105.599,213.933 126.241,210.200 128.818 C 208.000 130.337,205.483 131.963,204.607 132.432 C 203.731 132.900,202.021 134.034,200.807 134.951 C 199.593 135.868,195.409 138.739,191.509 141.332 C 187.609 143.925,184.312 146.219,184.181 146.431 C 184.050 146.642,183.101 147.277,182.072 147.841 C 181.042 148.405,179.300 149.377,178.200 150.001 C 175.166 151.721,168.415 151.536,168.403 149.733 C 168.401 149.476,169.165 148.605,170.100 147.796 C 171.035 146.987,171.530 146.470,171.200 146.647 C 169.941 147.322,165.732 150.392,164.200 151.752 L 162.600 153.172 165.200 155.575 C 169.455 159.508,174.633 159.741,180.000 156.241 C 184.550 153.274,209.052 136.822,216.400 131.800 C 218.930 130.071,225.590 125.572,231.200 121.803 C 251.047 108.469,251.472 108.154,257.480 102.268 C 262.636 97.217,262.685 97.103,263.087 89.300 C 263.375 83.715,263.759 83.743,256.400 88.824 M291.404 97.206 C 291.537 97.422,296.811 101.041,303.123 105.249 C 309.435 109.457,314.330 112.622,314.000 112.281 C 313.195 111.451,291.095 96.707,291.404 97.206 M234.719 103.521 C 230.605 106.316,227.005 108.854,226.719 109.162 C 226.138 109.790,241.066 99.798,241.986 98.944 C 243.187 97.828,242.015 98.567,234.719 103.521 M208.723 121.123 C 206.591 122.595,202.811 125.253,200.323 127.028 C 197.836 128.804,194.931 130.755,193.869 131.364 C 192.806 131.972,192.016 132.549,192.112 132.645 C 192.273 132.807,199.553 128.520,200.000 128.000 C 200.360 127.580,207.743 122.169,210.300 120.451 C 211.675 119.526,212.800 118.687,212.800 118.585 C 212.800 118.304,212.859 118.267,208.723 121.123 M177.845 141.991 C 175.009 143.949,172.489 145.768,172.245 146.034 C 171.727 146.598,181.915 139.740,182.786 138.939 C 183.990 137.831,182.860 138.529,177.845 141.991 M154.932 150.100 C 154.393 150.837,153.495 153.628,153.723 153.857 C 153.832 153.965,154.127 153.427,154.379 152.662 C 155.448 149.423,156.763 151.474,156.273 155.615 C 155.700 160.449,151.105 164.796,143.706 167.503 C 140.776 168.575,86.413 168.570,83.480 167.498 C 76.495 164.944,73.624 160.557,78.280 159.553 C 79.458 159.298,79.206 159.262,77.159 159.392 C 74.067 159.587,73.616 159.290,73.560 157.020 C 73.538 156.129,73.403 154.991,73.260 154.491 L 73.000 153.583 71.492 154.827 C 65.392 159.861,69.364 169.373,78.600 171.849 C 82.191 172.812,141.196 173.022,145.200 172.086 C 149.366 171.112,153.365 168.435,156.991 164.190 L 158.747 162.135 159.201 156.383 C 159.623 151.045,159.605 150.593,158.952 150.115 C 158.051 149.456,155.410 149.446,154.932 150.100 M151.375 157.300 L 150.200 158.600 151.500 157.425 C 152.712 156.330,152.984 156.000,152.675 156.000 C 152.606 156.000,152.021 156.585,151.375 157.300 M98.930 159.100 C 107.251 159.160,120.751 159.160,128.930 159.100 C 137.108 159.039,130.300 158.990,113.800 158.990 C 97.300 158.990,90.608 159.039,98.930 159.100 M206.104 179.082 C 204.002 179.487,201.600 182.671,201.600 185.051 C 201.600 189.461,203.485 191.203,218.003 200.200 C 219.778 201.300,222.618 203.082,224.315 204.160 C 226.012 205.238,228.030 206.512,228.800 206.991 C 231.283 208.535,233.358 209.835,235.200 211.000 C 236.190 211.626,237.720 212.586,238.600 213.132 C 239.480 213.678,240.663 214.438,241.228 214.821 C 248.476 219.730,257.184 220.176,261.900 215.880 C 263.780 214.168,263.299 213.395,258.200 209.928 C 254.043 207.102,253.416 206.793,255.502 208.597 C 257.393 210.234,257.382 210.486,255.370 211.441 C 251.972 213.053,247.099 211.730,240.200 207.321 C 236.918 205.223,232.117 202.206,227.595 199.400 C 211.512 189.418,209.526 187.651,210.972 184.603 C 211.988 182.462,213.229 182.358,216.496 184.140 C 217.983 184.951,219.200 185.537,219.200 185.441 C 219.200 184.960,207.557 178.619,207.105 178.854 C 207.047 178.884,206.597 178.987,206.104 179.082 M324.000 180.547 C 320.736 182.203,313.922 186.378,314.459 186.393 C 314.602 186.397,315.935 185.661,317.423 184.757 C 322.063 181.938,324.800 182.208,324.800 185.483 C 324.800 186.415,322.949 189.600,322.408 189.600 C 322.251 189.600,321.690 189.978,321.161 190.440 C 320.286 191.205,318.151 192.645,314.400 195.001 C 313.630 195.484,311.612 196.762,309.915 197.840 C 308.218 198.918,305.375 200.700,303.596 201.800 C 301.818 202.900,298.616 204.945,296.481 206.344 C 288.234 211.750,283.629 213.130,279.669 211.382 C 277.445 210.401,277.812 209.881,283.207 206.360 C 287.442 203.596,288.795 202.533,286.500 203.774 C 277.855 208.449,271.575 213.932,272.906 215.644 C 276.431 220.180,286.497 219.738,294.106 214.715 C 294.869 214.212,296.781 212.990,298.356 212.000 C 299.931 211.010,302.610 209.318,304.310 208.240 C 306.009 207.162,308.075 205.857,308.900 205.340 C 309.725 204.823,311.165 203.919,312.100 203.331 C 313.035 202.743,314.430 201.872,315.200 201.396 C 315.970 200.920,317.950 199.662,319.600 198.600 C 321.250 197.538,323.320 196.217,324.200 195.665 C 331.880 190.847,333.601 188.916,333.599 185.120 C 333.595 179.501,329.709 177.650,324.000 180.547 M220.200 186.207 C 220.640 186.566,221.360 187.035,221.800 187.251 L 222.600 187.644 221.800 186.993 C 221.360 186.634,220.640 186.165,220.200 185.949 L 219.400 185.556 220.200 186.207 M310.100 188.846 C 308.737 189.719,308.295 190.306,309.500 189.643 C 310.418 189.139,311.856 188.027,311.600 188.019 C 311.490 188.016,310.815 188.388,310.100 188.846 M226.600 190.207 C 227.040 190.566,227.760 191.035,228.200 191.251 L 229.000 191.644 228.200 190.993 C 227.760 190.634,227.040 190.165,226.600 189.949 L 225.800 189.556 226.600 190.207 M233.000 194.207 C 233.440 194.566,234.160 195.035,234.600 195.251 L 235.400 195.644 234.600 194.993 C 234.160 194.634,233.440 194.165,233.000 193.949 L 232.200 193.556 233.000 194.207 M239.400 198.207 C 239.840 198.566,240.560 199.035,241.000 199.251 L 241.800 199.644 241.000 198.993 C 240.560 198.634,239.840 198.165,239.400 197.949 L 238.600 197.556 239.400 198.207 M294.900 198.446 C 293.537 199.319,293.095 199.906,294.300 199.243 C 295.218 198.739,296.656 197.627,296.400 197.619 C 296.290 197.616,295.615 197.988,294.900 198.446 M248.800 204.084 C 249.130 204.410,250.120 205.082,251.000 205.578 C 252.349 206.337,252.447 206.354,251.626 205.682 C 250.291 204.590,248.001 203.295,248.800 204.084 " stroke="none" fill="#54a484" fill-rule="evenodd"></path><path id="path4" d="M197.543 74.633 C 197.511 75.715,197.376 86.680,197.243 99.000 L 197.000 121.400 194.979 121.518 L 192.958 121.636 192.235 119.343 C 191.317 116.431,189.802 114.136,188.230 113.274 C 186.911 112.551,74.627 111.982,73.968 112.695 C 73.813 112.863,73.802 122.720,73.943 134.600 L 74.200 156.200 74.400 134.600 L 74.600 113.000 130.101 112.899 L 185.603 112.797 187.434 113.658 C 189.465 114.613,190.831 116.427,191.634 119.236 C 192.413 121.963,193.013 122.456,195.378 122.318 L 197.400 122.200 197.641 97.600 C 197.774 84.070,197.819 72.925,197.741 72.833 C 197.664 72.742,197.574 73.552,197.543 74.633 M190.020 75.748 C 189.822 76.269,189.061 77.184,188.330 77.780 C 187.598 78.377,187.360 78.687,187.800 78.469 C 188.780 77.984,190.194 76.445,190.528 75.500 C 190.904 74.434,190.432 74.665,190.020 75.748 M26.267 79.067 C 25.781 79.552,25.976 84.282,26.500 84.715 C 26.775 84.943,27.810 85.442,28.800 85.825 C 32.459 87.240,33.752 88.654,34.619 92.192 C 35.075 94.050,35.115 94.097,35.156 92.826 C 35.260 89.602,32.351 86.337,28.291 85.120 C 26.593 84.611,26.277 83.923,26.474 81.168 L 26.600 79.400 106.600 79.199 L 186.600 78.997 106.567 78.899 C 62.548 78.844,26.413 78.920,26.267 79.067 M277.656 87.566 C 278.175 87.987,278.677 88.255,278.771 88.161 C 278.976 87.957,277.544 86.831,277.056 86.813 C 276.866 86.806,277.136 87.145,277.656 87.566 M256.162 88.462 L 255.400 89.324 256.500 88.616 C 257.634 87.886,257.849 87.600,257.262 87.600 C 257.076 87.600,256.581 87.988,256.162 88.462 M271.900 112.000 C 271.964 124.430,272.013 134.876,272.008 135.214 C 272.004 135.551,272.585 136.168,273.300 136.584 C 274.015 137.001,278.789 139.965,283.908 143.171 C 289.027 146.377,293.538 149.180,293.933 149.400 C 294.327 149.620,296.169 150.775,298.025 151.966 C 299.881 153.157,302.750 154.974,304.400 156.005 C 308.644 158.655,314.473 162.327,318.097 164.631 C 319.800 165.714,321.521 166.780,321.922 167.000 C 322.322 167.220,324.079 168.318,325.825 169.439 C 327.571 170.561,329.944 172.064,331.098 172.780 C 333.523 174.284,333.518 174.319,330.600 175.965 C 329.390 176.648,328.400 177.311,328.400 177.439 C 328.400 177.948,333.408 174.888,333.520 174.310 C 333.604 173.882,329.913 171.355,321.520 166.095 C 314.854 161.916,302.740 154.308,294.600 149.188 C 286.460 144.067,278.135 138.871,276.100 137.640 L 272.400 135.403 272.347 118.602 C 272.318 109.361,272.179 99.010,272.038 95.600 C 271.898 92.190,271.835 99.570,271.900 112.000 M263.065 98.100 C 262.920 102.555,262.802 112.778,262.801 120.818 L 262.800 135.436 252.700 141.744 C 247.145 145.213,238.640 150.565,233.800 153.637 C 228.960 156.709,219.735 162.561,213.300 166.643 C 206.865 170.724,201.600 174.291,201.600 174.568 C 201.600 174.846,202.545 175.579,203.700 176.198 C 208.408 178.720,210.268 179.738,211.600 180.518 C 212.370 180.970,212.857 181.173,212.682 180.969 C 212.507 180.766,210.179 179.340,207.509 177.800 C 201.963 174.601,201.815 174.414,203.881 173.185 C 204.717 172.689,207.380 171.025,209.800 169.488 C 212.220 167.951,215.640 165.789,217.400 164.683 C 221.082 162.369,227.489 158.296,232.375 155.164 C 234.231 153.974,236.081 152.820,236.486 152.600 C 237.203 152.211,240.168 150.331,248.800 144.794 C 251.110 143.312,255.250 140.707,258.000 139.004 C 260.750 137.302,263.036 135.878,263.080 135.841 C 263.198 135.741,263.545 90.000,263.427 90.000 C 263.372 90.000,263.209 93.645,263.065 98.100 M247.087 94.568 C 244.726 96.202,244.164 96.775,245.906 95.772 C 247.250 94.999,249.556 93.223,249.200 93.236 C 249.090 93.241,248.139 93.840,247.087 94.568 M34.897 179.200 C 34.825 238.843,34.667 264.272,34.358 265.400 C 33.703 267.801,32.352 269.303,29.747 270.528 C 28.456 271.135,27.130 271.779,26.800 271.957 C 26.133 272.319,25.763 276.249,26.317 277.095 C 26.655 277.611,81.595 277.897,82.421 277.387 C 82.629 277.258,82.800 276.002,82.800 274.595 C 82.800 271.857,82.511 271.525,79.333 270.615 C 77.925 270.212,76.439 268.839,75.489 267.062 L 74.600 265.400 74.600 228.400 L 74.600 191.400 111.062 191.298 C 154.595 191.176,151.369 190.685,153.909 197.825 C 154.929 200.692,155.046 200.800,157.144 200.800 C 160.019 200.800,159.913 201.354,159.709 187.273 C 159.607 180.303,159.703 169.110,159.921 162.400 C 160.335 149.644,160.289 149.163,158.651 149.240 C 157.898 149.275,157.916 149.312,158.800 149.561 C 159.711 149.817,159.792 150.018,159.713 151.821 C 159.666 152.909,159.509 164.195,159.366 176.900 L 159.105 200.000 157.140 200.000 C 155.911 200.000,155.121 199.813,155.032 199.500 C 153.774 195.115,152.330 192.871,150.012 191.700 L 148.230 190.800 111.139 190.800 C 90.738 190.800,73.980 190.935,73.898 191.100 C 73.816 191.265,73.851 208.140,73.975 228.600 L 74.200 265.800 75.296 267.665 C 76.485 269.687,78.041 270.839,80.700 271.666 L 82.400 272.195 82.400 274.597 L 82.400 277.000 54.700 276.937 L 27.000 276.874 26.684 274.997 C 26.315 272.807,26.562 272.389,28.675 271.633 C 31.309 270.690,33.437 268.959,34.349 267.019 L 35.202 265.205 35.100 179.902 L 34.998 94.600 34.897 179.200 M242.785 97.629 L 241.400 98.858 242.900 97.781 C 244.226 96.830,244.657 96.400,244.285 96.400 C 244.222 96.400,243.547 96.953,242.785 97.629 M216.836 115.003 C 214.765 116.408,212.785 117.848,212.436 118.205 C 212.086 118.561,213.825 117.482,216.300 115.806 C 218.775 114.131,220.800 112.679,220.800 112.580 C 220.800 112.309,220.865 112.269,216.836 115.003 M330.800 122.987 C 330.800 123.094,335.474 126.308,341.186 130.130 C 346.899 133.952,351.472 136.917,351.350 136.719 C 351.071 136.267,330.800 122.722,330.800 122.987 M201.718 125.379 C 199.229 127.118,195.849 129.798,197.457 128.755 C 201.532 126.115,205.036 123.496,204.324 123.622 C 204.256 123.634,203.083 124.424,201.718 125.379 M187.800 134.645 C 185.380 136.292,183.131 137.797,182.803 137.990 C 182.475 138.182,182.295 138.408,182.403 138.491 C 182.511 138.575,184.933 137.058,187.785 135.121 C 190.637 133.185,192.797 131.611,192.585 131.625 C 192.373 131.639,190.220 132.998,187.800 134.645 M167.232 148.605 C 165.820 149.573,164.380 150.657,164.032 151.015 C 163.685 151.373,164.885 150.649,166.700 149.407 C 168.515 148.164,170.000 147.069,170.000 146.974 C 170.000 146.711,169.985 146.720,167.232 148.605 M370.000 149.343 C 370.000 149.463,370.810 150.119,371.800 150.800 L 373.600 152.038 373.594 173.319 C 373.591 185.024,373.456 194.800,373.294 195.043 C 373.132 195.287,368.140 198.762,362.200 202.764 C 356.260 206.766,346.270 213.525,340.000 217.785 C 327.339 226.385,311.358 237.223,297.400 246.675 C 292.340 250.101,284.704 255.311,280.432 258.251 C 276.159 261.191,272.624 263.553,272.575 263.499 C 272.526 263.444,272.421 251.993,272.343 238.052 L 272.200 212.703 273.589 211.752 C 274.353 211.228,274.819 210.800,274.626 210.800 C 274.433 210.800,273.712 211.230,273.022 211.756 L 271.769 212.712 271.843 238.256 C 271.926 267.202,271.638 265.173,275.282 262.495 C 276.447 261.639,280.160 259.063,283.533 256.770 C 291.696 251.220,309.631 239.048,323.200 229.848 C 329.250 225.746,339.240 218.965,345.400 214.780 C 351.560 210.594,360.380 204.636,365.000 201.538 C 369.620 198.441,373.537 195.671,373.703 195.383 C 373.870 195.094,373.960 185.183,373.903 173.357 L 373.800 151.855 371.900 150.490 C 370.855 149.739,370.000 149.223,370.000 149.343 M162.196 152.309 C 161.405 152.989,161.396 153.335,161.596 174.800 L 161.800 196.600 181.000 209.499 C 228.654 241.514,242.069 250.550,251.600 257.051 C 262.924 264.775,262.777 264.685,263.140 264.096 C 263.283 263.865,263.400 252.191,263.400 238.155 L 263.400 212.634 261.000 210.931 C 259.680 209.994,258.422 209.221,258.206 209.214 C 257.989 209.206,258.979 209.984,260.406 210.943 L 263.000 212.686 262.858 238.043 C 262.780 251.989,262.651 263.470,262.570 263.555 C 262.489 263.641,260.080 262.111,257.216 260.155 C 251.019 255.924,218.557 234.059,188.884 214.132 C 177.160 206.259,166.585 199.045,165.384 198.103 L 163.200 196.388 163.213 181.094 C 163.224 167.331,163.136 165.173,162.328 159.533 L 161.430 153.266 162.415 152.446 C 162.957 151.995,163.310 151.625,163.200 151.622 C 163.090 151.620,162.638 151.929,162.196 152.309 M152.530 154.700 C 152.135 155.826,149.905 158.000,149.145 158.000 C 148.761 158.000,148.346 158.163,148.223 158.363 C 148.100 158.562,148.404 158.628,148.899 158.510 C 150.012 158.243,152.662 155.772,152.928 154.752 C 153.177 153.803,152.858 153.762,152.530 154.700 M74.359 158.921 C 74.536 159.097,75.833 159.185,77.241 159.116 L 79.800 158.991 76.918 158.795 C 75.333 158.688,74.181 158.744,74.359 158.921 M325.900 178.677 C 324.856 179.258,324.063 179.797,324.140 179.873 C 324.300 180.034,328.000 178.014,328.000 177.766 C 328.000 177.515,327.943 177.540,325.900 178.677 M322.100 180.846 C 320.737 181.719,320.295 182.306,321.500 181.643 C 322.418 181.139,323.856 180.027,323.600 180.019 C 323.490 180.016,322.815 180.388,322.100 180.846 M213.600 181.620 C 214.987 182.561,215.778 182.835,214.800 182.036 C 214.250 181.586,213.620 181.217,213.400 181.215 C 213.180 181.213,213.270 181.396,213.600 181.620 M318.481 182.972 C 316.725 184.214,316.297 184.745,317.800 183.818 C 319.878 182.535,320.591 181.999,320.189 182.020 C 319.975 182.030,319.207 182.459,318.481 182.972 M218.800 184.820 C 220.187 185.761,220.978 186.035,220.000 185.236 C 219.450 184.786,218.820 184.417,218.600 184.415 C 218.380 184.413,218.470 184.596,218.800 184.820 M311.200 187.636 C 310.536 188.179,310.469 188.315,311.000 188.040 C 312.305 187.366,313.028 186.812,312.600 186.815 C 312.380 186.817,311.750 187.186,311.200 187.636 M225.200 188.820 C 226.587 189.761,227.378 190.035,226.400 189.236 C 225.850 188.786,225.220 188.417,225.000 188.415 C 224.780 188.413,224.870 188.596,225.200 188.820 M231.600 192.820 C 232.987 193.761,233.778 194.035,232.800 193.236 C 232.250 192.786,231.620 192.417,231.400 192.415 C 231.180 192.413,231.270 192.596,231.600 192.820 M296.000 197.236 C 295.336 197.779,295.269 197.915,295.800 197.640 C 297.105 196.966,297.828 196.412,297.400 196.415 C 297.180 196.417,296.550 196.786,296.000 197.236 M252.211 205.739 C 254.119 207.041,255.200 207.678,255.200 207.499 C 255.200 207.245,252.104 205.200,251.720 205.200 C 251.556 205.200,251.777 205.442,252.211 205.739 M280.800 206.836 C 280.136 207.379,280.069 207.515,280.600 207.240 C 281.905 206.566,282.628 206.012,282.200 206.015 C 281.980 206.017,281.350 206.386,280.800 206.836 " stroke="none" fill="#246a4d" fill-rule="evenodd"></path></g></svg>