<svg id="svg" version="1.1" xmlns="http://www.w3.org/2000/svg" xmlns:xlink="http://www.w3.org/1999/xlink" width="400" height="400" viewBox="0, 0, 400,400"><g id="svgg"><path id="path0" d="M168.889 200.000 L 168.889 213.333 255.926 213.333 L 342.963 213.333 342.963 200.000 L 342.963 186.667 255.926 186.667 L 168.889 186.667 168.889 200.000 M186.109 192.221 C 192.050 195.097,191.271 206.078,184.978 208.155 C 180.376 209.674,176.170 207.009,175.173 201.942 C 173.723 194.570,179.801 189.167,186.109 192.221 M209.249 192.217 C 211.178 193.201,211.310 193.523,210.302 194.799 C 209.305 196.061,208.836 196.151,207.568 195.320 C 204.414 193.254,201.098 198.998,203.152 202.970 C 204.160 204.920,206.523 205.432,208.250 204.073 L 209.192 203.332 210.169 204.493 C 212.812 207.633,205.631 210.072,201.691 207.372 C 193.658 201.868,200.657 187.834,209.249 192.217 M228.402 191.875 C 234.633 194.230,234.538 205.613,228.267 208.008 C 222.749 210.115,218.037 206.356,218.037 199.848 C 218.038 193.464,222.837 189.773,228.402 191.875 M63.704 200.000 L 63.704 208.148 65.741 208.148 L 67.778 208.148 67.778 205.000 L 67.778 201.852 70.556 201.852 L 73.333 201.852 73.333 200.156 L 73.333 198.460 70.555 198.582 L 67.776 198.704 67.777 196.944 L 67.778 195.185 70.926 195.185 L 74.074 195.185 74.074 193.519 L 74.074 191.852 68.889 191.852 L 63.704 191.852 63.704 200.000 M82.593 200.000 L 82.593 208.148 87.963 208.148 L 93.333 208.148 93.333 206.481 L 93.333 204.815 90.185 204.815 L 87.037 204.815 87.037 198.333 L 87.037 191.852 84.815 191.852 L 82.593 191.852 82.593 200.000 M97.529 192.130 C 100.185 196.595,102.372 202.281,102.514 205.093 L 102.669 208.148 104.668 208.148 L 106.667 208.148 106.667 205.242 C 106.667 202.442,106.754 202.150,109.073 197.187 L 111.478 192.037 109.401 191.925 C 108.258 191.863,107.252 191.883,107.165 191.970 C 106.910 192.226,105.518 196.004,105.186 197.344 C 105.017 198.022,104.814 198.643,104.733 198.724 C 104.652 198.805,104.013 197.292,103.312 195.362 L 102.037 191.852 99.700 191.852 C 98.415 191.852,97.438 191.977,97.529 192.130 M119.259 199.938 C 119.259 209.169,119.064 208.384,121.315 208.205 L 123.052 208.066 122.896 202.552 C 122.723 196.473,122.726 196.442,123.324 198.426 C 123.554 199.190,124.680 201.690,125.825 203.981 L 127.909 208.148 130.065 208.148 L 132.222 208.148 132.222 200.000 L 132.222 191.852 130.147 191.852 L 128.072 191.852 128.262 196.389 C 128.366 198.884,128.558 201.426,128.687 202.037 C 128.848 202.792,128.649 202.554,128.068 201.296 C 127.598 200.278,126.325 197.736,125.239 195.648 L 123.265 191.852 121.262 191.852 L 119.259 191.852 119.259 199.938 M141.852 199.982 L 141.852 208.148 143.744 208.148 L 145.636 208.148 145.501 202.613 C 145.392 198.113,145.451 197.230,145.818 197.891 C 146.067 198.338,146.276 198.954,146.284 199.259 C 146.291 199.565,147.050 201.231,147.970 202.963 C 148.890 204.694,149.823 206.569,150.043 207.130 C 150.416 208.080,150.588 208.148,152.629 208.148 L 154.815 208.148 154.815 200.000 L 154.815 191.852 152.963 191.852 L 151.111 191.852 151.111 196.206 C 151.111 198.601,151.273 201.124,151.470 201.812 C 152.002 203.666,151.726 203.214,148.762 197.369 L 146.058 192.037 143.955 191.926 L 141.852 191.815 141.852 199.982 M246.208 192.315 C 246.413 192.569,247.600 194.774,248.846 197.213 L 251.111 201.648 251.111 196.750 L 251.111 191.852 252.963 191.852 L 254.815 191.852 254.815 200.018 L 254.815 208.185 252.738 208.074 L 250.662 207.963 248.139 203.028 L 245.615 198.093 245.826 203.120 L 246.037 208.148 243.944 208.148 L 241.852 208.148 241.852 200.000 L 241.852 191.852 243.844 191.852 C 244.991 191.852,245.993 192.048,246.208 192.315 M271.373 196.848 L 273.910 201.844 273.764 196.848 L 273.618 191.852 275.698 191.852 L 277.778 191.852 277.778 200.000 L 277.778 208.148 275.621 208.148 L 273.464 208.148 270.893 203.034 L 268.322 197.920 268.462 203.034 L 268.603 208.148 266.524 208.148 L 264.444 208.148 264.444 200.000 L 264.444 191.852 266.640 191.852 L 268.836 191.852 271.373 196.848 M297.778 193.519 L 297.778 195.185 294.630 195.185 L 291.481 195.185 291.481 196.667 L 291.481 198.148 294.259 198.148 L 297.037 198.148 297.037 199.815 L 297.037 201.481 294.259 201.481 L 291.481 201.481 291.481 203.148 L 291.481 204.815 294.815 204.815 L 298.148 204.815 298.148 206.481 L 298.148 208.148 292.778 208.148 L 287.407 208.148 287.407 200.000 L 287.407 191.852 292.593 191.852 L 297.778 191.852 297.778 193.519 M311.481 198.333 L 311.481 204.815 314.630 204.815 L 317.778 204.815 317.778 206.481 L 317.778 208.148 312.407 208.148 L 307.037 208.148 307.037 200.000 L 307.037 191.852 309.259 191.852 L 311.481 191.852 311.481 198.333 M330.370 198.333 L 330.370 204.815 333.519 204.815 L 336.667 204.815 336.667 206.481 L 336.667 208.148 331.481 208.148 L 326.296 208.148 326.296 200.000 L 326.296 191.852 328.333 191.852 L 330.370 191.852 330.370 198.333 M180.654 195.896 C 178.137 198.145,179.234 204.455,182.192 204.748 C 183.989 204.925,185.032 204.035,185.549 201.881 C 186.741 196.909,183.692 193.181,180.654 195.896 M224.021 195.376 C 221.233 196.891,221.829 204.330,224.773 204.753 C 226.485 204.999,227.432 204.470,228.164 202.857 C 230.198 198.376,227.492 193.491,224.021 195.376 " stroke="none" fill="#d8d9df" fill-rule="evenodd"></path><path id="path1" d="M179.815 192.039 C 176.734 193.179,174.953 196.536,175.250 200.643 C 176.027 211.391,189.747 210.784,189.786 200.000 C 189.809 193.811,185.128 190.074,179.815 192.039 M203.448 192.090 C 197.350 194.250,196.684 204.637,202.463 207.434 C 205.210 208.764,209.768 208.169,210.903 206.333 C 211.400 205.529,209.215 203.629,208.518 204.259 C 205.934 206.598,202.224 204.135,202.223 200.081 C 202.221 195.992,205.108 193.670,208.118 195.337 C 208.942 195.794,209.089 195.745,209.951 194.721 L 210.888 193.607 210.044 192.924 C 208.303 191.514,205.922 191.213,203.448 192.090 M222.608 192.133 C 218.415 193.795,216.774 200.278,219.371 204.926 C 222.106 209.821,229.920 209.235,232.037 203.977 C 234.994 196.630,229.303 189.481,222.608 192.133 M74.444 193.519 C 74.444 194.435,74.611 195.185,74.815 195.185 C 75.019 195.185,75.185 194.435,75.185 193.519 C 75.185 192.602,75.019 191.852,74.815 191.852 C 74.611 191.852,74.444 192.602,74.444 193.519 M110.369 195.199 C 109.454 197.127,108.643 198.850,108.566 199.028 C 108.489 199.206,108.655 199.275,108.935 199.182 C 109.215 199.089,109.458 198.860,109.475 198.673 C 109.493 198.486,109.701 197.864,109.938 197.291 C 110.176 196.717,110.370 196.092,110.370 195.902 C 110.370 195.711,110.537 195.556,110.741 195.556 C 110.944 195.556,111.111 195.277,111.111 194.937 C 111.111 194.596,111.376 194.025,111.699 193.668 C 112.023 193.310,112.230 192.720,112.160 192.356 C 112.084 191.963,111.357 193.118,110.369 195.199 M132.677 199.888 L 132.593 208.109 130.648 208.245 L 128.704 208.381 130.660 208.450 C 133.138 208.537,132.999 209.093,132.870 199.620 L 132.762 191.667 132.677 199.888 M146.804 192.870 C 147.146 193.532,147.630 194.061,147.880 194.045 C 148.227 194.022,148.225 193.972,147.870 193.829 C 147.616 193.726,147.407 193.426,147.407 193.163 C 147.407 192.899,147.132 192.455,146.795 192.175 C 146.231 191.707,146.231 191.763,146.804 192.870 M242.017 192.325 C 241.918 192.585,241.881 196.210,241.937 200.380 L 242.037 207.963 243.850 208.078 L 245.663 208.193 245.471 202.457 L 245.278 196.722 248.102 202.342 L 250.926 207.963 252.870 208.075 L 254.815 208.187 254.815 199.999 L 254.815 191.811 253.056 191.924 L 251.296 192.037 251.192 194.074 C 251.135 195.194,251.225 197.653,251.393 199.537 C 251.772 203.804,251.702 203.788,249.495 199.108 C 246.410 192.568,245.856 191.852,243.877 191.852 C 242.857 191.852,242.128 192.037,242.017 192.325 M264.815 200.001 L 264.815 208.189 266.574 208.076 L 268.333 207.963 268.445 205.819 C 268.506 204.640,268.386 202.149,268.178 200.284 C 267.969 198.418,267.849 196.843,267.909 196.782 C 267.970 196.721,269.294 199.254,270.851 202.410 L 273.681 208.148 275.544 208.148 L 277.407 208.148 277.407 200.000 L 277.407 191.852 275.691 191.852 L 273.975 191.852 274.149 197.564 L 274.322 203.275 271.493 197.656 L 268.664 192.037 266.740 191.925 L 264.815 191.813 264.815 200.001 M287.493 199.907 L 287.593 207.963 292.685 208.066 L 297.778 208.169 297.778 206.492 L 297.778 204.815 294.424 204.815 L 291.071 204.815 291.183 203.056 L 291.296 201.296 293.981 201.187 L 296.667 201.079 296.667 199.630 L 296.667 198.181 293.981 198.072 L 291.296 197.963 291.182 196.589 L 291.068 195.215 294.330 195.107 L 297.593 195.000 297.706 193.426 L 297.820 191.852 292.607 191.852 L 287.393 191.852 287.493 199.907 M307.407 199.980 L 307.407 208.148 312.407 208.148 L 317.407 208.148 317.407 206.481 L 317.407 204.815 314.268 204.815 L 311.129 204.815 311.027 198.426 L 310.926 192.037 309.167 191.924 L 307.407 191.811 307.407 199.980 M326.470 192.304 C 326.366 192.576,326.326 196.210,326.381 200.380 L 326.481 207.963 331.389 208.066 L 336.296 208.170 336.296 206.492 L 336.296 204.815 333.342 204.815 L 330.388 204.815 330.287 198.426 L 330.185 192.037 328.422 191.924 C 327.211 191.846,326.600 191.965,326.470 192.304 M87.037 198.519 C 87.037 202.469,87.175 204.815,87.407 204.815 C 87.640 204.815,87.778 202.469,87.778 198.519 C 87.778 194.568,87.640 192.222,87.407 192.222 C 87.175 192.222,87.037 194.568,87.037 198.519 M102.619 192.478 C 102.702 193.440,103.281 194.255,103.307 193.448 C 103.322 193.001,103.167 192.533,102.963 192.407 C 102.759 192.282,102.604 192.313,102.619 192.478 M155.260 200.073 L 155.185 208.109 153.426 208.250 C 151.698 208.389,151.704 208.391,153.704 208.398 L 155.741 208.405 155.645 202.999 C 155.468 192.998,155.335 191.985,155.260 200.073 M124.821 194.091 C 124.818 194.203,125.412 195.369,126.142 196.684 C 126.872 197.998,127.359 198.741,127.225 198.333 C 127.092 197.926,126.953 197.426,126.917 197.222 C 126.881 197.019,126.762 196.769,126.652 196.667 C 126.543 196.565,126.087 195.898,125.640 195.185 C 125.193 194.472,124.824 193.980,124.821 194.091 M103.339 194.643 C 103.349 195.280,104.026 196.097,104.310 195.814 C 104.461 195.662,104.304 195.256,103.959 194.912 C 103.615 194.567,103.336 194.446,103.339 194.643 M184.687 195.696 C 186.027 196.849,186.433 201.223,185.381 203.176 C 183.597 206.489,179.657 205.310,179.052 201.281 C 178.318 196.385,181.650 193.083,184.687 195.696 M227.058 195.196 C 229.642 196.579,229.466 203.556,226.817 204.763 C 224.790 205.687,223.014 204.720,222.288 202.297 C 220.860 197.529,223.651 193.373,227.058 195.196 M68.254 196.852 C 68.257 197.870,68.329 198.243,68.414 197.680 C 68.499 197.117,68.497 196.284,68.409 195.828 C 68.321 195.373,68.251 195.833,68.254 196.852 M104.123 196.667 C 104.066 197.507,104.667 198.317,104.976 197.817 C 105.115 197.592,105.065 197.407,104.864 197.407 C 104.663 197.407,104.423 197.116,104.329 196.759 C 104.209 196.300,104.149 196.273,104.123 196.667 M123.241 203.244 L 123.438 208.103 121.812 208.249 L 120.185 208.394 121.852 208.364 L 123.519 208.333 123.623 203.970 C 123.680 201.570,123.574 199.331,123.386 198.995 C 123.171 198.611,123.117 200.186,123.241 203.244 M145.833 203.244 L 146.031 208.103 144.219 208.244 C 142.409 208.385,142.409 208.385,144.592 208.452 L 146.776 208.519 146.572 204.106 C 146.461 201.679,146.204 199.399,146.003 199.039 C 145.754 198.595,145.700 199.943,145.833 203.244 M127.886 200.356 C 128.114 200.960,128.357 201.396,128.427 201.326 C 128.658 201.095,128.074 199.259,127.770 199.259 C 127.606 199.259,127.658 199.753,127.886 200.356 M107.641 200.876 C 107.238 201.725,107.037 203.141,107.037 205.128 L 107.037 208.108 105.278 208.246 L 103.519 208.385 105.463 208.452 L 107.407 208.519 107.407 205.519 C 107.407 203.513,107.607 202.098,108.011 201.246 C 108.344 200.546,108.532 199.890,108.430 199.788 C 108.328 199.686,107.973 200.176,107.641 200.876 M68.222 205.073 L 68.148 208.109 66.204 208.245 L 64.259 208.381 66.215 208.450 C 68.555 208.532,68.597 208.461,68.424 204.780 L 68.295 202.037 68.222 205.073 M93.389 206.378 L 93.333 208.127 88.426 208.242 L 83.519 208.357 88.589 208.438 C 94.211 208.527,94.007 208.613,93.680 206.296 L 93.445 204.630 93.389 206.378 " stroke="none" fill="#091109" fill-rule="evenodd"></path><path id="path2" d="M264.603 200.000 C 264.603 204.583,264.656 206.458,264.721 204.167 C 264.786 201.875,264.786 198.125,264.721 195.833 C 264.656 193.542,264.603 195.417,264.603 200.000 M311.264 198.333 C 311.265 202.000,311.320 203.450,311.387 201.555 C 311.455 199.661,311.454 196.661,311.387 194.889 C 311.319 193.117,311.264 194.667,311.264 198.333 M273.790 199.259 C 273.790 199.972,273.866 200.264,273.959 199.907 C 274.052 199.551,274.052 198.968,273.959 198.611 C 273.866 198.255,273.790 198.546,273.790 199.259 M174.908 199.815 C 174.912 200.630,174.988 200.919,175.077 200.459 C 175.165 199.998,175.162 199.331,175.069 198.977 C 174.977 198.623,174.904 199.000,174.908 199.815 M202.308 200.000 C 202.308 200.713,202.384 201.005,202.478 200.648 C 202.571 200.292,202.571 199.708,202.478 199.352 C 202.384 198.995,202.308 199.287,202.308 200.000 M245.693 204.444 C 245.693 206.583,245.754 207.458,245.829 206.389 C 245.903 205.319,245.903 203.569,245.829 202.500 C 245.754 201.431,245.693 202.306,245.693 204.444 M145.691 204.630 C 145.692 206.667,145.754 207.453,145.829 206.376 C 145.904 205.300,145.903 203.634,145.827 202.673 C 145.751 201.712,145.690 202.593,145.691 204.630 M69.176 202.124 C 70.048 202.202,71.381 202.201,72.139 202.121 C 72.898 202.041,72.185 201.977,70.556 201.979 C 68.926 201.980,68.305 202.045,69.176 202.124 M123.092 204.815 C 123.092 206.546,123.156 207.255,123.234 206.389 C 123.312 205.523,123.312 204.106,123.234 203.241 C 123.156 202.375,123.092 203.083,123.092 204.815 M317.513 206.481 C 317.516 207.500,317.588 207.873,317.673 207.310 C 317.758 206.747,317.756 205.913,317.668 205.458 C 317.580 205.002,317.511 205.463,317.513 206.481 " stroke="none" fill="#8f9690" fill-rule="evenodd"></path><path id="path3" d="M74.175 193.704 C 74.175 194.620,74.247 194.995,74.335 194.537 C 74.424 194.079,74.424 193.329,74.335 192.870 C 74.247 192.412,74.175 192.787,74.175 193.704 M154.973 200.185 C 154.973 204.667,155.026 206.449,155.091 204.146 C 155.157 201.843,155.156 198.177,155.091 195.998 C 155.026 193.819,154.972 195.704,154.973 200.185 M155.713 200.185 C 155.714 204.667,155.767 206.449,155.832 204.146 C 155.897 201.843,155.897 198.177,155.832 195.998 C 155.766 193.819,155.713 195.704,155.713 200.185 M277.565 200.000 C 277.565 204.380,277.618 206.171,277.684 203.981 C 277.749 201.792,277.749 198.208,277.684 196.019 C 277.618 193.829,277.565 195.620,277.565 200.000 M307.194 200.000 C 307.194 204.380,307.248 206.171,307.313 203.981 C 307.379 201.792,307.379 198.208,307.313 196.019 C 307.248 193.829,307.194 195.620,307.194 200.000 M296.768 199.630 C 296.768 200.546,296.840 200.921,296.928 200.463 C 297.016 200.005,297.016 199.255,296.928 198.796 C 296.840 198.338,296.768 198.713,296.768 199.630 " stroke="none" fill="#717474" fill-rule="evenodd"></path><path id="path4" d="M123.704 192.340 C 123.704 193.032,124.308 193.484,124.600 193.011 C 124.714 192.827,124.558 192.471,124.255 192.219 C 123.807 191.847,123.704 191.869,123.704 192.340 M132.297 199.886 C 132.256 204.406,132.347 208.182,132.500 208.277 C 132.653 208.372,132.735 205.923,132.682 202.836 C 132.509 192.607,132.372 191.564,132.297 199.886 M273.833 195.185 C 273.833 196.917,273.897 197.625,273.975 196.759 C 274.053 195.894,274.053 194.477,273.975 193.611 C 273.897 192.745,273.833 193.454,273.833 195.185 M147.241 193.674 C 147.125 193.861,147.274 194.258,147.572 194.556 C 147.869 194.853,147.996 195.227,147.853 195.386 C 147.710 195.544,147.794 195.559,148.039 195.418 C 148.532 195.135,148.277 194.074,147.716 194.074 C 147.522 194.074,147.467 193.907,147.593 193.704 C 147.718 193.500,147.738 193.333,147.636 193.333 C 147.534 193.333,147.356 193.487,147.241 193.674 M67.884 196.852 C 67.886 197.870,67.958 198.243,68.044 197.680 C 68.129 197.117,68.126 196.284,68.038 195.828 C 67.951 195.373,67.881 195.833,67.884 196.852 M70.104 195.458 C 71.078 195.534,72.578 195.534,73.437 195.456 C 74.297 195.378,73.500 195.316,71.667 195.317 C 69.833 195.318,69.130 195.381,70.104 195.458 M291.205 196.481 C 291.209 197.296,291.284 197.586,291.373 197.125 C 291.462 196.665,291.458 195.998,291.366 195.644 C 291.273 195.290,291.200 195.667,291.205 196.481 M148.704 197.037 C 149.350 198.287,149.506 198.395,149.506 197.593 C 149.506 197.287,149.373 197.037,149.209 197.037 C 149.046 197.037,149.008 196.787,149.125 196.481 C 149.261 196.127,149.119 195.926,148.734 195.926 C 148.181 195.926,148.179 196.022,148.704 197.037 M108.973 197.556 C 108.560 198.462,109.193 198.750,109.897 197.976 C 110.055 197.802,109.959 197.790,109.683 197.950 C 109.300 198.171,109.240 198.053,109.430 197.454 C 109.767 196.390,109.474 196.455,108.973 197.556 M178.995 199.815 C 178.998 200.833,179.070 201.206,179.155 200.643 C 179.240 200.080,179.238 199.247,179.150 198.791 C 179.062 198.336,178.992 198.796,178.995 199.815 M251.197 199.259 C 251.197 199.972,251.273 200.264,251.366 199.907 C 251.460 199.551,251.460 198.968,251.366 198.611 C 251.273 198.255,251.197 198.546,251.197 199.259 M73.333 200.185 C 73.333 201.102,73.500 201.852,73.704 201.852 C 73.907 201.852,74.074 201.102,74.074 200.185 C 74.074 199.269,73.907 198.519,73.704 198.519 C 73.500 198.519,73.333 199.269,73.333 200.185 M123.635 204.630 C 123.571 206.770,123.644 208.520,123.796 208.519 C 123.949 208.519,124.074 206.769,124.074 204.630 C 124.074 199.602,123.785 199.603,123.635 204.630 M291.260 201.628 C 291.151 201.912,291.128 202.787,291.209 203.572 C 291.351 204.941,291.360 204.928,291.419 203.257 L 291.481 201.514 294.167 201.386 L 296.852 201.258 294.155 201.185 C 292.138 201.130,291.408 201.241,291.260 201.628 M67.833 205.071 C 67.803 206.739,67.903 208.182,68.056 208.277 C 68.208 208.372,68.287 207.424,68.230 206.169 C 68.055 202.335,67.892 201.881,67.833 205.071 M106.796 205.185 C 106.796 206.917,106.860 207.625,106.938 206.759 C 107.016 205.894,107.016 204.477,106.938 203.611 C 106.860 202.745,106.796 203.454,106.796 205.185 M107.534 205.000 C 107.536 206.630,107.601 207.250,107.679 206.379 C 107.757 205.508,107.756 204.175,107.677 203.416 C 107.597 202.658,107.533 203.370,107.534 205.000 M93.805 206.296 C 93.805 207.213,93.877 207.588,93.965 207.130 C 94.053 206.671,94.053 205.921,93.965 205.463 C 93.877 205.005,93.805 205.380,93.805 206.296 M297.884 206.481 C 297.886 207.500,297.958 207.873,298.044 207.310 C 298.129 206.747,298.126 205.913,298.038 205.458 C 297.951 205.002,297.881 205.463,297.884 206.481 M336.402 206.481 C 336.405 207.500,336.477 207.873,336.562 207.310 C 336.647 206.747,336.645 205.913,336.557 205.458 C 336.469 205.002,336.399 205.463,336.402 206.481 " stroke="none" fill="#6c716c" fill-rule="evenodd"></path></g></svg>