<svg xmlns="http://www.w3.org/2000/svg" width="400" height="400" fill-rule="evenodd" xmlns:v="https://vecta.io/nano"><path d="M179.815 192.034c-5.587 1.962-6.371 12.146-1.168 15.166 5.672 3.293 11.134-.331 11.134-7.385 0-6.317-4.385-9.74-9.966-7.781m23.75-.008c-6.041 2.153-6.996 12.497-1.418 15.343 2.911 1.485 6.023 1.31 8.073-.453l.972-.837-.981-1.166-.982-1.167-1.287.76c-3.393 2.002-6.338-1.231-5.522-6.061.511-3.027 3.45-4.591 5.685-3.026.884.619 2.792-.826 2.51-1.9-.386-1.477-4.595-2.369-7.05-1.493m19.213.008c-5.585 1.961-6.344 12.32-1.117 15.251 4.697 2.636 9.794.3 10.919-5.005 1.512-7.121-3.571-12.434-9.802-10.246M241.852 200v8.148h1.902 1.902l-.181-5.634-.181-5.635 2.811 5.635 2.81 5.634h1.95 1.95V200v-8.148h-1.91-1.91l.242 5.573.241 5.574-2.789-5.574-2.79-5.573h-2.023-2.024V200m22.963.001v8.188l1.759-.113 1.759-.113.108-2.037c.06-1.12-.041-3.537-.223-5.37s-.286-3.39-.23-3.459 1.344 2.348 2.861 5.37l2.759 5.496 1.899.112 1.9.112v-8.168-8.167H275.7h-1.707l.135 5.526.086 5.463c-.028-.035-1.286-2.48-2.797-5.434l-2.748-5.37-1.927-.112-1.927-.112v8.188m22.592-.001v8.148h5.186 5.185v-1.667-1.666h-3.334-3.333v-1.667-1.667h2.778 2.778v-1.65-1.65l-2.686-.109-2.685-.109-.115-1.389-.115-1.389h3.356 3.356v-1.666-1.667h-5.185-5.186V200m20 0v8.148h5 5v-1.667-1.666h-3.148-3.148v-6.482-6.481h-1.852-1.852V200m19.136-7.901c-.136.136-.247 3.807-.247 8.158v7.912l5.093-.103 5.092-.103.114-1.574.114-1.574h-3.169-3.17v-6.482-6.481h-1.79c-.984 0-1.901.111-2.037.247m-142.448 3.097c2.652 1.42 2.388 8.468-.36 9.606-2.25.932-4.203-.691-4.682-3.89-.608-4.052 2.201-7.236 5.042-5.716m43.49.503c1.876 1.876 1.774 6.739-.177 8.483-2.903 2.593-6.175-.902-5.36-5.726.537-3.18 3.593-4.701 5.537-2.757" fill="#f7f7f7"/><path d="M168.889 200v13.333h87.037 87.037V200v-13.333h-87.037-87.037V200m15.838-8.325c8.778 2.607 6.683 16.844-2.478 16.844-9.946 0-9.769-16.754.184-17.383.217-.014 1.25.229 2.294.539m23.293-.012c2.893.859 3.417 1.663 2.158 3.314-1.181 1.548-1.095 1.526-2.299.579-2.417-1.901-5.286.511-5.286 4.444 0 4.061 2.96 6.195 5.654 4.076l.939-.739 1.201 1.368 1.201 1.368-1.227 1.024c-1.388 1.159-3.668 1.637-6.026 1.265-7.973-1.26-8.268-14.6-.371-16.723 2.272-.611 1.911-.613 4.056.024m21.162.624c5.639 2.686 4.899 14.219-1.017 15.863-5.898 1.638-10.095-1.708-10.12-8.068-.028-7.204 4.997-10.721 11.137-7.795M63.704 200v8.148h2.037 2.037V205v-3.148h2.778 2.777v-1.667-1.666h-2.777-2.778v-1.667-1.667h3.148 3.148v-1.666-1.667h-5.185-5.185V200m11.217-6.481c.003 1.018.074 1.391.16.828s.082-1.397-.005-1.852-.158.005-.155 1.024M82.593 200v8.148h5.37 5.37v-1.667-1.666h-3.148-3.148v-6.482-6.481h-2.222-2.222V200m15.321-7.13c3.643 7.063 4.438 9.177 4.596 12.223l.159 3.055h1.999 1.999v-2.917c0-2.821.078-3.081 2.407-7.995l2.407-5.231c0-.979-4.406-.016-4.804 1.051l-.944 2.5c-.272.713-.608 1.796-.746 2.407-.24 1.055-2.653-3.919-2.741-5.648-.017-.321-.767-.463-2.441-.463h-2.417l.526 1.018m21.345 7.112v8.166h1.902 1.903l-.179-5.555c-.194-6.056-.178-6.213.439-4.167.23.764 1.356 3.264 2.501 5.555l2.084 4.167h2.156 2.157V200v-8.148h-2.082-2.081l.194 4.537c.107 2.495.304 4.954.438 5.463s-.997-1.491-2.513-4.445l-2.755-5.37-2.082-.111-2.082-.111v8.167m22.593 0v8.166h1.892 1.892l-.135-5.555-.07-5.556c.036 0 .341.83.678 1.844s1.272 3.056 2.079 4.537 1.644 3.151 1.861 3.712c.368.951.538 1.018 2.58 1.018h2.186V200v-8.148h-1.893-1.893l.149 5.278.15 5.277-2.632-5.185-2.631-5.185-2.107-.111-2.106-.111v8.167m106.736-3.323l2.436 4.807-.195-4.807-.195-4.807h2.091 2.09v8.166 8.167l-2.13-.111-2.129-.111-2.348-4.63-2.421-4.704c-.04-.041-.005 2.084.077 4.722l.15 4.797h-2.081-2.081V200v-8.148h2.15 2.15l2.436 4.807m22.852.193l2.449 4.815-.121-4.908-.122-4.907h2.066 2.066V200v8.148h-2.192-2.191l-2.481-4.907-2.53-4.97c-.028-.034.007 2.174.078 4.908l.129 4.969h-2.073-2.074v-8.166-8.165l2.274.11 2.273.11 2.449 4.815m26.338-3.333v1.666h-3.148-3.149v1.296 1.297h2.778 2.778v1.852 1.851h-2.778-2.778v1.667 1.667h3.334 3.333v1.666 1.667h-5.555-5.556V200v-8.148h5.37 5.371v1.667m13.703 4.814v6.482h3.149 3.148v1.666 1.667h-5.371-5.37V200v-8.148h2.222 2.222v6.481m18.889 0v6.482h3.149 3.148v1.666 1.667h-5.186-5.185V200v-8.148h2.037 2.037v6.481m-149.575-2.518c-2.678 2.678-1.487 9.024 1.687 8.988 1.762-.02 2.757-1.181 3.222-3.758.773-4.288-2.434-7.705-4.909-5.23m43.359-.422c-3.339 2.339-2.217 9.422 1.493 9.422 3.589 0 4.304-8.311.827-9.633-1.259-.478-1.347-.47-2.32.211" fill="#040404"/><path d="M311.264 198.333l.123 3.222v-6.666c-.068-1.772-.123-.222-.123 3.444m-65.571 6.111c0 2.139.061 3.014.136 1.945s.074-2.82 0-3.889-.136-.194-.136 1.944m-138.161.741c0 1.528.065 2.153.145 1.389a16.11 16.11 0 0 0 0-2.778c-.08-.764-.145-.139-.145 1.389" fill="#5a5a5a"/><path d="M264.603 200l.118 4.167v-8.334c-.065-2.291-.118-.416-.118 4.167m9.232-5c-.001 1.833.062 2.63.139 1.77s.079-2.359.002-3.333-.14-.27-.141 1.563m3.731 5l.118 4.167v-8.334c-.065-2.291-.118-.416-.118 4.167m29.629 0l.119 4.167v-8.334c-.065-2.291-.119-.416-.119 4.167m-151.482.185l.119 3.961v-8.148c-.066-2.179-.119-.294-.119 4.187m135.492-3.704c.004.815.079 1.105.168.644s.085-1.127-.007-1.481-.166.023-.161.837m-46.02 1.83c0 1.135.211 1.227.478.208.106-.407.042-.834-.142-.948s-.336.219-.336.74m51.583 1.319c0 .916.072 1.291.16.833a5.3 5.3 0 0 0 0-1.667c-.088-.458-.16-.083-.16.834m-117.786.185c.004.815.08 1.104.169.644s.085-1.128-.008-1.482-.165.023-.161.838m42.963 0c.004.815.08 1.104.169.644s.085-1.128-.008-1.482-.165.023-.161.838m-23.703.37c.004.815.08 1.105.168.644s.085-1.127-.007-1.481-.166.022-.161.837m92.975 2.963c.003 1.019.075 1.391.16.828s.083-1.396-.005-1.851-.158.005-.155 1.023m6.667 3.333c.002 1.019.074 1.392.16.829s.082-1.397-.006-1.852-.157.005-.154 1.023m19.624-.185c0 .917.073 1.292.161.834a5.3 5.3 0 0 0 0-1.667c-.088-.458-.161-.083-.161.833" fill="#848484"/><path d="M74.074 193.519v1.666h-3.148-3.148v1.667c0 .917.166 1.667.37 1.667s.371-.667.371-1.482v-1.481h3.148 3.148v-1.852c0-1.019-.167-1.852-.371-1.852s-.37.75-.37 1.667m12.963 4.814c0 4.074.138 6.482.37 6.482s.371-2.408.371-6.482-.138-6.481-.371-6.481-.37 2.407-.37 6.481m15.209-6.018c.059 1.165 2.459 6.654 2.669 6.106.124-.324-.109-1.476-.519-2.561l-1.126-2.99c-.385-1.033-1.067-1.403-1.024-.555m6.885 4.815c-2.387 5.088-2.476 5.38-2.47 8.127l.006 2.851-1.76.138c-1.739.137-1.735.14.371.206l2.129.067v-2.904c0-2.448.168-3.248 1.069-5.093 3.813-7.813 4.153-8.67 3.439-8.67-.169 0-1.422 2.375-2.784 5.278m16.822-.039c3.08 6.136 3.088 6.15 2.736 4.262-.147-.784-1.009-2.784-1.917-4.445l-2.145-3.935c-.272-.504-.685-.98-.918-1.058s.776 2.251 2.244 5.176m6.269 2.889v8.128l-1.759.138c-1.74.137-1.736.14.37.206l2.13.067v-8.334l-.37-8.333c-.236 0-.371 2.956-.371 8.128m16.408-2.85l2.792 4.994c.222-.504-.998-3.622-2.152-5.497-.617-1.003-1.122-2.003-1.122-2.224 0-.55-1.457-2.551-1.858-2.551-.179 0 .874 2.375 2.34 5.278m6.185 2.85v8.128l-1.759.138c-1.74.137-1.736.14.37.206l2.13.067v-8.334l-.371-8.333c-.235 0-.37 2.956-.37 8.128m96.063-4.424c0 2.138.061 3.013.136 1.944a33.64 33.64 0 0 0 0-3.889c-.075-1.069-.136-.194-.136 1.945M287.195 200l.119 4.167v-8.334c-.065-2.291-.119-.416-.119 4.167m-164.308 2.476l.175 5.625-1.624.155c-1.325.127-1.25.148.414.116l2.037-.039-.056-4.45c-.037-2.907-.241-4.898-.589-5.741-.487-1.181-.518-.812-.357 4.334m22.612.059l.136 5.567-1.614.143c-1.417.127-1.348.152.561.209l2.174.065-.169-4.538c-.102-2.723-.38-5.031-.697-5.775-.48-1.128-.514-.746-.391 4.329m147.381-4.486c.871.079 2.205.078 2.963-.002s.046-.144-1.584-.142-2.25.066-1.379.144m-219.547 2.136v1.667h-2.777-2.778v3.128 3.128l-1.759.138c-1.74.137-1.736.14.37.206l2.13.067v-3.149-3.148h2.777 2.778v-1.852c0-1.018-.167-1.851-.37-1.851s-.371.75-.371 1.666m116.76-.37c.005.815.08 1.104.169.644s.085-1.128-.008-1.482-.165.023-.161.838m-96.76 6.656v1.656l-4.907.115-4.907.115 5.277.081 5.278.081v-1.852c0-1.019-.167-1.852-.37-1.852s-.371.745-.371 1.656" fill="#3c3c3c"/></svg>